<svg width="121" height="113" viewBox="0 0 121 113" fill="none" xmlns="http://www.w3.org/2000/svg">
<path fill-rule="evenodd" clip-rule="evenodd" d="M44.1582 89.1853C44.483 88.6266 44.8669 88.1749 45.2652 87.6608C45.7168 87.1876 45.9442 86.8744 46.5663 86.6639L47.0174 86.6544L47.3657 86.8657L47.5441 87.0686L47.5718 87.4457L47.2728 87.5578L47.1013 87.6259L46.9784 87.7632C46.1141 88.3988 45.6299 89.078 45.2741 89.9484L44.9391 90.7123C44.6389 91.3871 44.4786 91.9905 44.2233 92.6637L44.015 93.0078C43.3658 93.065 43.4339 93.0243 42.8554 92.7245L42.7655 92.4543L42.7926 92.0718C42.7075 91.1577 42.6865 90.3031 42.5566 89.3906L42.4796 88.6901L42.4902 88.5265L42.6467 88.2969L42.8559 88.188L43.1883 88.3065L43.5376 88.6619L43.6735 89.2872L43.7732 89.7855L43.8009 89.7181L44.1582 89.1853ZM58.8084 54.978L59.044 53.5143L60.1167 47.987C60.5946 45.684 61.1457 43.4752 61.6594 41.1969L62.742 37.5958L63.0359 36.874L63.0805 36.5685L63.1926 36.4429L63.4584 36.404L63.6387 36.4808L63.7419 36.5941L63.8059 36.7448C63.6842 38.219 63.416 39.5353 63.0624 40.9672C62.4546 43.429 61.9769 45.9446 61.48 48.4295L61.4603 48.8016L61.3739 49.3392C61.1597 50.5061 60.5393 53.8237 60.4446 54.885L60.4091 55.1339L60.4071 55.3208L60.4898 55.3696L60.7484 55.0788L61.3368 54.2428L62.0531 53.4043L62.7209 52.7398L62.96 52.5286L63.2606 52.3703L63.4583 52.281L63.6593 52.2512L63.7823 52.2659C64.5986 52.3512 64.9899 52.364 65.65 52.8612L65.7474 53.121C65.9066 53.7376 66.0103 54.5801 66.0457 55.2203L66.0928 55.4572L66.0909 55.6441L66.2074 55.8436L66.4648 55.7622L66.972 55.1845L67.9478 54.1386L70.3473 51.7459L71.0757 51.0207L71.825 50.4016L72.071 49.9561L72.4849 48.5737L74.0616 43.2488L74.758 40.9323L75.7524 37.7632L76.5984 34.9461L77.6014 32.1842L78.1847 30.7383L78.4489 30.1796L78.6141 30.0037L78.7723 29.9102L78.9858 29.9441L79.0968 30.0278L79.1658 30.1311L79.2192 30.3543L79.1759 30.7542L79.0477 30.9277L78.9354 31.3155L78.6913 32.0187L78.4999 32.6907L78.5234 32.9555L78.3625 33.2134L78.1586 33.8825L77.9009 35.2366L77.712 35.8242L77.5752 36.187L77.5393 36.5765L77.3544 37.0334L77.4003 37.2973L77.3499 37.567L77.194 37.899L77.102 38.1994L77.0258 38.5623L76.9579 38.8461L76.837 39.2714L76.6011 39.8955L76.5034 40.2817L76.5327 40.5214L76.517 40.7021L76.3934 40.9384L76.328 41.1681L76.2842 41.496L76.0484 42.1809L75.8513 42.9083L75.8813 43.1098L75.6797 43.3601L75.6948 43.5824L75.5531 43.9927L75.4339 44.6452L75.3047 45.0888L75.1346 45.4033C75.0465 45.896 74.7233 47.4191 74.3993 47.8788L74.3629 48.0444L74.355 48.1347L74.4556 48.1502L74.5777 48.0816L75.7512 47.0983L78.0162 45.3373L78.675 44.7598L79.0772 44.3772L79.3055 44.208L79.5187 44.3219L79.7469 44.4453L79.96 44.4984L80.152 44.5252L80.3444 44.6848L80.4768 45.0378L80.374 45.3195L80.0956 45.6785L79.7797 45.9679L79.5232 46.2236L79.1734 46.6853L78.8442 46.9797L78.2134 47.7633L77.8648 48.2283L77.397 48.5975L77.0272 49.0666C76.7351 49.4193 76.0645 50.2482 75.8433 50.6085L75.7032 50.8814L75.5804 51.1098L75.4364 51.3119L75.2336 51.6805L74.9087 52.2088C74.822 52.3515 74.8968 52.3691 74.9222 52.4165L75.1999 52.7531C75.7516 53.3251 75.8565 53.5138 76.5439 53.9627C76.9179 54.172 77.3413 53.7853 77.4294 53.7371C79.0789 52.6893 80.478 50.721 81.7958 49.243L84.3798 46.4125L85.0094 45.8079L85.5243 45.5541L86.2518 44.0884L86.6681 43.2484L86.8295 43.0018L87.0925 42.9754L87.4278 43.1422L87.5143 43.2921L87.4552 43.6296L87.1787 44.873L86.9287 45.4189L86.7306 46.0326L86.4091 47.0346L86.0979 48.0745L85.8692 48.7985L85.6729 49.5483L85.5914 49.9474L85.5373 50.359L85.5471 50.6479L85.602 50.7641L85.7063 50.7896L86.1053 50.469L86.9444 49.5237L88.4896 47.854L90.0668 46.1685L91.5542 44.4559L92.0829 43.8245L92.4443 43.3129L93.3339 41.5319L93.8152 40.7436L94.1027 40.328L94.2322 40.1579L94.3235 40.0781L94.4987 39.9896L94.6611 39.9781L94.8327 40.0315L94.9707 40.1166L95.0169 40.2094L95.0278 40.3193L95.0013 40.4812L94.9101 40.713L94.7857 40.8964L94.6584 41.2746L94.6166 41.3853L94.5443 41.4048L94.4289 41.562L94.4282 41.6915L94.3665 41.9008L93.9562 42.6055L93.8137 43.1148L93.4911 43.7297L93.3386 44.3035L93.2087 44.9069L93.1507 45.1262L93.0731 45.2427L93.0869 45.3401L93.1767 45.3976L93.4104 45.2226L93.8308 44.6661L94.494 43.9691L94.8904 43.5204L95.6961 42.789L96.8132 41.8877L97.3866 41.5473L97.8097 41.3924L98.1629 41.4044L98.6211 41.4948L98.9174 41.6686L99.2021 41.8316L99.3842 42.0445L99.5307 42.3847L99.572 42.5857L99.5046 42.9112L99.4339 43.329L99.3996 43.5508L99.3693 43.6723L99.3864 43.7685L99.5015 43.7823L99.6439 43.6568L100.555 42.8743L101.138 42.4773L102.984 40.8924L103.916 40.0833L104.652 39.5716L104.986 39.5719L105.335 39.7146L105.697 39.8523L105.648 40.1444L104.806 40.9311L102.984 42.5298L101.859 43.5822L101.248 44.1952L100.685 44.6038L100.324 44.9252L99.7843 45.2036L98.873 45.3097L98.4607 45.0692L98.0497 44.8016L97.8551 44.6162L97.7622 44.2673L97.8867 43.6393L97.9496 43.3422L97.9943 43.0367L98.041 42.8482L97.9699 42.7191L97.8673 42.7082L97.6531 42.8645L97.2479 43.1684L96.6842 43.6761L95.2244 45.1086L94.2632 46.2136L93.8341 46.6861L93.6221 47.1113L93.1438 47.3514L92.5698 47.4678L91.8833 47.1933L91.6007 46.9649L91.4966 46.7076L91.4885 46.4637L91.5456 46.1915L91.5899 45.966L91.7081 45.6747L91.7303 45.4005L91.6717 45.3654L91.5322 45.5089L91.2509 45.9411L90.7451 46.6133L89.7569 47.6562L88.9293 48.6124L87.5664 50.172L86.7072 51.064L86.2714 51.4174L85.8799 51.6971L85.4879 51.8745L85.1755 51.87L84.6545 51.7538L84.4188 51.5496L84.289 51.3551L84.1762 51.0137L84.2428 50.1605L84.4655 49.1576L84.7881 47.9463L85.021 47.3043L85.0969 47.0821L85.1578 46.9718L85.1254 46.8852L85.0091 46.8984L84.9605 46.9812L84.829 47.2167L84.4198 47.6816C83.8937 48.4716 82.5135 49.6311 81.6496 50.8137L81.5052 51.0957L81.0417 51.7292C80.182 52.933 79.4021 53.7839 78.0246 54.6879C77.0608 55.1594 76.4975 55.173 75.8604 54.8078C75.1331 54.3435 74.7166 54.0209 74.1449 53.3652L73.8703 52.8451L73.8041 52.6686L73.7518 52.6502L73.6849 52.6943L73.6397 52.7758C73.2771 53.2841 73.0299 53.7871 72.7113 54.332L72.0742 55.4827L71.8351 56.26L71.6623 56.7389L71.3823 57.2352L71.1818 57.4282L70.9485 57.5537L70.6553 57.6408L70.3928 57.7088L70.1871 57.6757L69.9416 57.6272L69.7662 57.4726L69.6464 57.2744L69.5889 57.0604L69.5724 56.6829L69.6494 56.4336L69.7029 56.2426L69.6769 56.032L69.67 55.7003L69.8044 55.3915L70.1902 54.753L70.5559 54.0004L70.9617 52.8794L71.0699 52.6223L71.1587 52.4143L71.052 52.5341L70.8445 52.779L70.2719 53.556C69.0554 54.9201 68.2421 55.9241 66.8439 57.0562L66.5582 57.1633L66.2778 57.1431L65.9209 57.0907L65.5362 56.9842L65.0296 56.7752L64.7803 56.6256L64.6638 56.3957C64.3738 55.794 64.3188 55.1117 64.2534 54.4524L64.1593 54.1609L64.1591 53.8874L64.1041 53.6801L64.0385 53.6971L63.9219 53.8206L63.5487 54.1391L63.0481 54.6535C62.3238 55.3696 61.682 56.3055 61.0589 56.8772L60.8864 57.2459C60.5065 57.9506 59.35 60.0103 58.3849 58.841L58.2855 58.6769L58.1898 58.4621L58.2202 58.0479C58.3554 56.8119 58.5404 56.3854 58.8084 54.978ZM49.1621 57.7398C48.8191 58.3509 48.4748 58.9587 48.1467 59.5794L48.1392 59.5898L47.5149 60.6331L47.5128 60.6377C46.1532 62.6406 44.3933 65.4052 42.1414 66.4432L42.1194 66.4553L42.0949 66.4607C41.6127 66.5693 41.0988 66.553 40.7193 66.1976C39.9257 65.4655 40.2009 63.7135 40.3717 62.7642L40.3726 62.7563L40.8231 61.0373L41.3522 59.3458L43.0855 54.9538L43.2288 54.9418C43.4302 54.9233 43.7206 54.879 43.8645 55.0606C44.0083 55.2422 43.8948 55.566 43.8509 55.7724L43.8464 55.8007L43.639 56.2279L43.4397 56.8383C43.0693 58.0638 42.8622 59.2698 42.6426 60.5337C42.4158 61.5761 42.1286 62.3563 42.2403 63.4428C42.2857 63.5739 42.3681 63.733 42.5036 63.781C43.2926 64.0664 45.3728 61.3071 45.7716 60.7739C46.6866 59.5456 47.486 58.2923 48.3125 57.0098L49.3383 55.2385L49.3437 55.2326C49.501 54.9951 49.7877 54.6179 50.1222 54.7318C50.6478 54.9109 50.5383 56.1753 50.4585 56.6193C50.3604 57.0854 50.1944 58.2494 50.2517 58.6952L50.3153 59.2793C50.4592 60.0573 50.5406 59.9812 51.0727 60.5112C51.2555 60.5946 51.4235 60.7292 51.444 60.9456C51.475 61.2608 51.1537 61.5256 50.9524 61.7264C50.6091 62.0641 50.1747 62.1586 49.7114 62.0549L49.613 62.0349L49.5614 61.9478C49.4799 61.8112 49.3983 61.6746 49.3201 61.5368L49.3118 61.5247L49.3068 61.5114C48.904 60.5986 48.944 60.2607 48.9715 59.293L48.9723 59.2851L48.9731 59.2772C49.0234 58.7644 49.0724 58.2484 49.1621 57.7398ZM23.0705 71.2645L22.9115 71.3052L22.2656 71.3916L21.5549 71.487L21.0514 71.4479L20.2791 71.3993L19.3378 71.2735L18.4038 71.1374L17.7411 70.9262L17.0039 70.6479L16.1134 70.2333L15.2431 69.6706L14.6354 69.2222L14.3684 68.8436L14.2282 68.52L14.3115 68.2267L14.4392 68.042L14.8242 67.8255L15.1376 68.0955L15.449 68.4612L15.8115 68.8116L16.3348 69.2271L17.1115 69.6311L17.9647 70.0065L18.6107 70.1328L19.6344 70.2961L20.2351 70.3216L21.0979 70.3287L21.9602 70.2941L23.0795 70.0454L23.1941 69.9265L23.2123 69.874L23.3265 68.794L23.4536 66.1819L23.6385 63.6127L24.0037 60.1705L24.4281 55.2889L25.0162 50.5511L25.3981 47.5776L26.0941 43.1679L26.9131 38.8944L27.7394 35.378L28.5014 32.4785L29.5743 29.2154L30.6461 26.7886L31.8267 24.2677L33.0615 22.4371L34.2254 21.3776L35.1023 20.8665L35.6343 20.6784L36.3155 20.6358L37.0791 20.7826L37.8499 21.0293L39.122 21.7643L40.1941 22.6731L41.8548 25.1924L42.4187 26.4133L43.5563 29.8316L44.1585 33.2568L44.4913 35.4989L44.6488 38.6882L44.5648 42.1428L44.3619 44.0273L43.9669 46.5614L43.1747 49.704L42.7261 51.711L41.8011 54.4285L41.2627 55.9335L39.984 58.3847L39.7388 58.7616L39.1741 59.661L38.3737 60.8007L37.433 62.0006L35.6039 63.9136L33.9003 65.4945L32.0119 66.9965L30.4156 68.1459L28.5697 69.2863L27.3961 69.7947L26.2886 70.1758L25.6644 70.4212L25.5503 70.5513L25.3106 75.7132L24.7112 89.1326L24.6309 93.1329L24.2735 93.4531L23.4428 93.6125L22.6245 93.5622L22.5716 93.4719L22.3237 93.5686L22.3816 91.1762L22.3988 89.878L22.5324 86.515L22.6566 81.3889L22.8655 75.6497L22.9989 73.1454L23.0705 71.2645ZM25.4853 68.8015L25.5751 68.7982L27.0105 68.0891L29.3361 66.7119L31.2083 65.1969L32.7517 63.8052L34.4806 61.8576L36.8313 58.6777L37.9647 56.7787L39.4866 53.5107L40.2261 51.6225L40.7667 49.79L41.2737 47.9282L41.679 45.2194L41.9804 42.9408L42.3397 40.3214L42.3554 39.191L42.424 36.6046L41.999 33.5004L41.866 32.3269L40.7481 28.2136L40.127 26.5468L39.5448 25.2264L38.7756 23.8925L38.0384 22.9266L37.5075 22.4608L37.0662 22.2539L36.7846 22.2607L36.0934 22.3679L35.6878 22.6605L35.0299 23.3213L34.3116 24.2555L33.4127 25.7589L32.4302 27.6964L31.7565 29.3357L31.0777 31.4366L30.558 32.9611L29.8967 35.4924L29.4279 37.355L28.7339 40.628L27.6491 47.0527L27.4228 49.1778L26.7122 55.0746L26.2613 58.9251L26.0067 61.6116L25.4853 68.8015ZM49.1955 65.6107L50.1128 65.7227C52.0903 66.0146 53.5428 62.7232 54.3299 61.0528C54.848 59.6048 55.0034 59.14 54.9868 57.6C54.3472 55.1765 53.7612 54.321 52.0848 52.5181L51.3111 51.7178L50.8541 51.0647C50.2387 49.2515 52.1149 46.4736 53.8337 45.8634C54.499 45.6671 54.5265 46.2761 54.0801 46.5004C53.1187 47.2712 52.6595 48.0475 52.1427 49.0847C51.942 50.0451 51.8784 50.5325 52.4145 51.3155L53.2436 52.2128C55.2849 54.3121 55.9738 54.5932 56.6691 57.5999C56.8154 59.7486 56.1816 61.4641 55.1052 63.4139C54.5605 64.2147 53.9928 64.9442 53.448 65.7449C52.7068 66.5472 52.628 66.7514 51.513 67.1733C50.5176 67.5503 49.5813 67.5898 48.5058 67.0356L48.2485 66.8244C47.6388 66.5021 47.8526 65.2024 49.1955 65.6107ZM72.7468 80.9361L72.8013 80.9499L72.7957 80.7734L72.7494 80.4678L72.7485 80.4453C72.7608 80.1748 72.7763 79.903 72.8123 79.635L72.8147 79.6113L72.8989 79.3708L72.9225 79.2821L72.9784 79.1282L73.1416 78.9872L73.3699 78.8484L73.5602 78.8607L73.8506 78.9683L73.9763 79.2328L74.0277 79.582L74.052 79.93L74.0249 80.2821L74.0104 80.7891C73.9592 81.7239 74.0825 82.6692 74.1447 83.6033C74.1997 83.841 74.2294 84.0616 74.2691 84.2785L74.3814 83.9515L74.5873 83.2474L74.802 82.6578L75.1642 81.6938L75.3607 81.187L75.5879 80.6611L75.704 80.344L75.8034 79.9117L75.9264 79.4818L75.8834 79.2054C75.7716 78.0886 75.7878 77.1213 75.7703 76.0033L75.7463 75.0397L75.797 74.0936L75.825 72.723L75.8309 71.7482L75.9056 71.1997L75.9659 70.2691L76.019 69.1778L76.1137 68.0861L76.1776 66.4475L76.2462 65.5289L76.4031 64.2696L76.4693 63.4355L76.6327 62.679L76.6056 62.4954L76.6128 62.1508L76.6914 61.7945L77.0983 61.5052L77.4274 61.5946L77.6037 61.8324L77.6663 62.2421L77.6941 62.6496L77.6411 62.943L77.7196 63.3543L77.6434 63.6868L77.6468 64.3427L77.6759 64.8144L77.5062 66.0899L77.5058 66.6144L77.4778 67.0048L77.5055 67.3515L77.482 68.0974L77.3507 68.5151L77.4519 68.8761L77.2968 70.7769L77.2594 71.6875L77.3158 72.1109L77.2367 72.3951L77.137 74.4537L77.1212 74.9573C77.1606 76.4166 77.153 77.8518 77.224 79.3144L77.3496 80.5287L77.534 82.1122L77.6237 82.5535L77.8636 83.345C77.8723 83.3683 77.8782 83.4041 77.8898 83.4453L77.9678 83.2793L78.2679 82.4525L78.5087 81.8417L78.988 80.6135L79.6408 78.8984L80.0563 77.9752L80.1806 77.579L80.1446 77.2202L80.062 76.2824L80.0578 75.1898L80.0507 74.0489L80.0528 73.5694L80.0556 72.9301L80.0572 72.3482L80.0958 71.7639L80.1447 71.0959L80.2285 69.9247L80.2048 69.4168L80.2804 68.9212L80.2389 68.4163L80.2986 67.2921L80.3755 66.7694L80.3766 66.1155L80.438 65.5416L80.4887 65.0401L80.5268 63.8176L80.6312 62.9237L80.7084 61.8158L80.7902 61.2456L80.9188 60.5173L81.0106 60.0346L81.1774 59.7821L81.4485 59.6159L81.8001 59.7652L81.9679 60.2532L82.0101 60.659L81.9785 61.5751L81.9351 62.3285L81.9416 63.215L81.8513 64.0657L81.7753 65.1466L81.837 65.9175L81.7341 66.5525L81.7335 67.3392L81.6173 68.6061L81.5969 69.5522L81.631 70.0979L81.4901 71.0359L81.476 72.0594C81.4043 73.3438 81.4293 74.421 81.4822 75.7043L81.5205 76.332L81.5236 77.0375L81.5861 77.8309L81.5758 78.4199L81.6748 79.1692L81.8122 79.9801L81.9175 80.8372L82.0609 81.4521L82.1804 81.6999L82.1924 81.722L82.1945 81.7174L82.2773 81.4128L82.4243 80.8448C82.7821 79.9394 83.1391 79.1331 83.5746 78.2631L83.8454 77.7627L84.0195 77.2567L83.994 77.0269L84.0543 76.6624L84.1945 76.3895C84.3826 75.8098 84.6227 75.2981 84.8769 74.7431C85.3002 74.2045 86.1158 73.8531 86.5095 74.7617C86.7484 75.318 86.368 76.0722 86.1724 76.6015L86.1612 76.6323L85.8073 77.1031L85.4416 77.472L85.3565 77.6292C85.2686 77.8294 85.2302 78.0299 85.2407 78.2501C85.2585 78.631 85.3178 79.0723 85.3526 79.4581L85.5404 80.0602C85.6463 79.9179 85.7521 79.7757 85.8579 79.6334L86.4101 78.7311C86.9534 77.7144 87.4408 76.8212 88.0839 75.8582C88.4096 75.3524 88.7285 74.7579 89.0734 74.2829L89.2564 74.0737L89.3343 73.9077L89.3584 73.8303L89.3479 73.762L89.3245 73.5884C89.6773 73.1447 89.9835 73.2844 90.4381 73.5166L90.6437 73.8727L90.7406 74.5658L90.7523 74.6374L90.8882 74.2825L91.2313 73.7018L91.9396 72.7106L92.3885 72.0787L92.7571 71.6366L93.1208 71.3939L93.3276 71.3088L93.4065 71.2868L93.4152 71.2797L93.4633 71.1857L93.6168 70.9989L93.8912 70.7707L94.1349 70.5615C94.7562 70.359 95.0283 70.3672 95.2706 71.0741L95.2612 71.3018L95.235 71.7068L95.3057 72.3603L95.4465 72.7863L95.4801 72.7243L95.6456 72.4988L95.7817 72.2351L95.9442 71.9309L96.256 71.2062C96.6386 70.1851 97.1085 68.7096 98.4116 68.7187C99.2418 68.9622 99.2264 68.911 99.8791 69.5401L99.9861 69.9064L100.098 69.6706L100.425 69.248L100.774 68.855L101.066 68.5327L101.227 68.3738L101.417 68.2454L101.674 68.1224L101.866 68.0772C102.394 68.1639 102.648 68.2132 102.768 68.7761L102.445 69.068L102.206 69.1464L102.073 69.2682L101.902 69.4995C101.383 70.2262 100.969 70.7802 100.515 71.5698L100.285 71.9866C100.366 72.5374 100.324 73.1612 100.334 73.7236L100.312 74.6055L100.253 75.8737C100.131 77.6101 100.032 79.3873 99.8049 81.1061L99.5745 82.3816L99.3448 83.4365L98.9641 84.6545C98.6469 85.4155 98.5413 85.8616 98.0317 86.5237C97.2812 87.2002 96.5005 87.4322 95.6999 87.2575C94.3312 86.2851 94.4943 84.5371 94.6239 83.0638C94.8668 81.3771 95.0942 80.0533 95.6126 78.4342C96.1058 77.1019 96.5419 75.9506 97.1424 74.6617L97.5463 73.758L98.1394 72.6618L98.5086 71.9991L98.6429 71.6296L98.7229 71.4287L98.6949 71.253L98.6161 70.8912L98.5614 70.5128L98.4456 70.2143L98.4282 70.1676L98.3373 70.2891L98.195 70.5666L97.8513 71.3071L97.5416 72.0577L97.0784 73.0558L96.7095 73.6386C95.8131 74.1989 95.5745 74.4213 94.5908 73.9201C94.2353 73.5481 94.1796 73.5006 94.0496 73.0022L93.9602 72.7736L93.9496 72.523L93.893 72.4227L93.6864 72.7205L93.2503 73.3969L92.396 74.686L91.871 76.2772C91.6806 77.0932 91.661 77.5868 91.2071 78.2661L91.0754 78.2585C90.4947 78.2255 90.1502 78.0849 89.898 77.5336L89.881 77.4982L89.8546 77.2459L89.8744 77.0865L89.7191 76.1266L89.656 75.6449L89.5814 75.8097L89.2723 76.3397L88.6529 77.3355L87.1017 80.2423L86.8179 80.7286L86.4809 81.1133C85.7527 81.6066 85.3435 81.5055 84.634 81.0687L84.4025 80.8554L84.2589 80.5634L84.1494 80.2512L84.096 79.9673L84.0131 80.1503L83.7278 80.7132L83.2327 81.879C83.1337 82.1707 82.9106 82.6571 82.6581 82.8429L82.6407 82.857L82.6175 82.8657C82.5435 82.901 82.4684 82.933 82.3945 82.9683L82.3812 82.9733L82.1947 83.0318L81.7851 82.9802L81.4061 82.8184L81.1476 82.6038L81.0077 82.2915C80.7862 81.6299 80.6176 81.1195 80.5194 80.423L80.4288 79.8377L80.3853 79.9642L79.9522 81.2246L79.2557 83.0054L78.8521 84.1521C78.7269 84.4954 78.551 84.7437 78.1585 84.8187L77.8067 84.8708L77.4352 84.7897L77.1203 84.6874L77.0762 84.6204C76.8108 84.226 76.6029 83.8632 76.47 83.4078C76.4212 83.2475 76.3825 83.0834 76.3371 82.9219L76.3346 82.9152L76.2062 82.3403L76.1748 82.0747L75.7293 83.3625L75.4477 84.4103C75.3691 84.8273 74.9879 86.0948 74.5531 86.2388L74.5398 86.2438C74.0161 86.3832 73.668 86.3541 73.3249 85.8939L73.3 85.8576L73.1866 85.4442L73.1377 85.0408L73.1239 84.9131L73.08 85.0283L72.8204 85.6499L72.8055 85.6707C72.5067 86.0866 72.3673 86.3213 71.9672 86.6689L71.9356 86.6959L71.598 86.8263L71.5768 86.8304C70.9966 86.9302 70.5682 86.7983 70.1172 86.4241L70.0906 86.4036L69.8772 86.0771L69.7058 85.6703L69.5687 85.1936L69.4937 84.8418L69.4607 84.6224L69.4615 84.6145C69.425 84.2141 69.421 83.8091 69.4879 83.4117L69.3732 83.8232L69.1724 84.6621L68.9999 85.5057L68.7688 86.4053L68.7108 87.0995L68.6212 87.7904C68.4597 88.4816 68.4177 89.4206 68.3357 90.1618L68.2873 90.4876L68.2921 90.7936L68.2462 91.0653L67.9673 91.2915L67.497 91.2703L67.3593 90.9534L67.2615 90.2074L67.2409 89.4857L67.2639 88.5462L67.4015 87.1649L67.1684 87.5942L66.8344 88.1184L66.6215 88.3692L66.3941 88.6824C65.4212 89.655 64.489 90.0691 63.2306 90.4421L62.5395 90.5493C61.0464 90.3873 60.4584 90.1632 59.4377 89.068L59.1449 88.6307C58.187 87.0864 57.9812 85.2336 57.7347 83.4644L57.6383 81.4489L57.8306 78.7782L58.0742 77.4673C58.3694 75.6774 58.686 74.3087 59.1636 72.5606C59.8598 70.4759 60.7105 68.4397 61.8966 66.5095C62.5377 65.5815 63.3203 64.5966 64.4663 63.4793L64.7964 63.2074L65.06 63.0819L65.3657 62.9673L65.7079 62.9302C66.4091 62.9408 66.5409 63.0092 67.1829 63.2662L67.5221 63.6253C67.9273 64.2712 67.9738 64.7591 68.104 65.5005C68.1711 66.3568 68.2011 67.0332 68.1823 67.9027L68.0735 69.5125L67.882 71.5181L67.7928 72.7255L67.7333 73.0822L67.5598 73.2764L67.3094 73.3665L67.1183 73.3621L66.9089 73.2583L66.7922 72.8157L66.8504 71.8289L66.9303 70.4351L66.9457 68.9096L66.9752 67.4016L66.8889 66.0093L66.7846 65.3873L66.6824 64.9431L66.416 64.192L66.2554 63.9559L66.1544 63.8987L65.9339 63.9168L65.7524 64.0191L65.2206 64.3894L64.8736 64.7475C64.3963 65.2836 63.9743 65.7647 63.5573 66.3504L62.9358 67.3812L62.3866 68.3622C61.7044 69.7159 61.3098 70.8669 60.7734 72.2457L60.456 73.2689C60.1706 74.2156 59.9848 75.1553 59.7256 76.1111L59.6012 76.9518L59.4343 78.0933L59.3056 79.2054L59.1658 80.4697L59.1433 81.4204L59.1654 82.5708L59.2028 83.6206C59.3086 84.5193 59.3875 85.0026 59.6217 85.9102L59.8757 86.6888L60.2187 87.5328L60.5652 88.1741L61.0193 88.7182C63.0342 90.0295 64.244 89.1124 65.667 87.4201L65.9967 86.7836L66.2636 85.9389L66.3276 85.4628L66.3227 85.0657L66.2443 84.6848L66.0761 84.2767L65.884 84.0676L65.2304 83.8302L64.2969 83.6749L63.8075 83.562L63.3832 83.421L63.1775 83.2663L63.0365 83.0115L63.0685 82.5815L63.5869 82.0339L64.2316 81.53C65.7213 80.5308 66.7859 79.9645 68.4137 79.263L69.1434 79.0768L69.6328 79.1288L69.9669 79.2923L70.1282 79.4902L70.3125 79.7592L70.4195 80.0952L70.4297 80.4257L70.3013 80.8614L70.1346 81.1746L70.0239 81.4555L69.7054 82.5665L69.6548 82.745C69.7311 82.5644 69.8111 82.3939 69.8804 82.2045L69.8833 82.1921L70.0044 81.9491L70.3877 81.395L70.7917 81.1182L71.1554 80.9059L71.5736 80.7681L71.5803 80.7656C72.011 80.6915 72.3521 80.8029 72.7468 80.9361ZM34.0458 91.8559L33.8593 91.9145L33.4515 92.0901L33.1807 92.1765L32.8003 92.2127L32.6213 91.8467L32.6726 91.5691L32.8893 91.3587L33.1313 91.1958L33.4477 91.0088L33.987 90.5369L34.1177 90.4308L34.1957 89.7595L34.316 88.039L34.49 85.8652L35.2551 81.1142L35.4651 79.8957C35.7009 78.7055 35.9656 77.7135 36.2679 76.5592L36.6384 75.516L37.0826 74.6694C37.7228 73.6278 38.4198 73.1727 39.4317 73.6481C39.9673 74.2983 40.0273 74.4886 40.2643 75.2926L40.5869 77.6791L41.0211 80.9698L41.2851 83.3213L41.4604 84.3649L41.5284 85.2133L41.7335 85.0832L42.2372 84.7994L42.5672 84.5882L43.2698 84.1881C44.8571 83.2168 46.3581 82.3995 47.9604 81.4986L48.0247 81.3871L47.9851 81.231L48.0364 81.0142L48.1809 80.4395L48.3878 79.3742C48.7034 78.2148 48.9776 77.2382 49.3975 76.1044L49.6832 75.4616L49.7726 75.0633C50.1963 74.5967 50.6124 74.4331 50.8253 75.1322L50.7898 75.5026L50.707 75.8679L50.4168 77.014L50.0347 78.7339L49.7781 80.3232L49.7268 80.6919L49.9025 80.6147L50.3946 80.3808L51.1914 79.9795C52.4964 79.266 53.0974 79.1205 54.3531 78.5281L55.855 77.7637L56.6215 77.4535C57.0511 77.4976 57.1145 77.8385 56.7649 78.5129C56.3676 78.848 55.952 79.1444 55.4874 79.3604L54.5709 79.7762L54.2591 79.9653L53.6586 80.2132L53.189 80.4463L52.4818 80.7836L51.3674 81.3382L50.5095 81.789L49.6467 82.2569L49.4901 82.3346L49.4806 82.3495L49.4732 82.3903L49.4728 82.5006L49.4091 82.836L49.3401 83.8041L49.0911 86.1922L49.0165 88.3782L49.1855 91.9316L49.4112 95.2321L49.6816 97.2165L49.3743 97.3773L48.9585 97.3395L48.7422 97.0558L48.5982 96.7223L48.4869 96.2739L48.3329 95.8226L48.2187 95.3563L48.0186 93.923L47.881 92.8386L47.7968 91.4113L47.672 88.6125L47.753 86.029L47.7494 84.1802L47.7708 83.3477L47.4021 83.6075L46.1635 84.2961L45.4979 84.6634L44.8078 85.0057L44.0593 85.5561L43.341 85.9546L42.8361 86.2958L41.8031 86.8655L41.7387 86.9162L41.8158 87.708L42.1274 90.338L42.6426 93.5717L43.0701 95.7328L43.8965 100.1L44.2185 101.636L44.6395 102.91L44.5854 103.413L44.1507 103.587L43.5037 103.883L43.2625 103.502L42.9801 102.658L42.723 101.649L42.2918 99.5692L41.6062 96.2246L41.3189 94.862C41.103 93.902 40.8941 92.9508 40.7126 91.9816L40.5364 90.8547L40.3339 89.5667L40.1477 88.3524L40.1084 88.086L39.6613 88.4094L39.239 88.6779L38.6258 89.1243C37.7399 89.7225 36.9145 90.2903 35.9844 90.8213L35.9093 90.9141L35.5938 91.0932L35.5313 91.4623L35.4804 91.66L35.5289 92.1129L35.3612 94.3337L35.3065 96.0373C35.3518 97.0271 35.3197 97.9623 35.301 98.9534L35.2845 99.5864L35.3736 100.339L35.5622 101.378L35.3269 101.721L34.87 101.755L34.5894 101.553L34.4162 101.04L34.2502 100.244L34.145 99.5084C33.9023 97.3958 33.9052 95.2709 34.0306 93.1496L34.0342 91.9363L34.0458 91.8559ZM38.746 75.2957L38.6972 75.1354L38.6143 75.2577L38.4704 75.6422L38.3236 75.9176L38.2331 75.9895L38.1253 76.2275L37.9454 76.6673L37.6615 77.5374L37.4283 78.4112L37.0642 79.6837L36.9703 80.171L36.8596 80.9268C36.5863 82.4616 36.2804 83.8794 36.1126 85.443L36.0184 86.637L35.9212 87.1256L35.8753 87.8419L35.7964 88.3996L35.7467 89.1666L35.7353 89.3685L36.463 88.8031C37.5096 87.9966 38.6152 87.2059 39.6281 86.3703L39.8871 86.182L39.9962 86.0081L40.0692 85.8591L40.0302 85.4216L39.9129 84.6336L39.6627 81.8742L39.4347 79.9727L39.2705 78.241L39.0627 76.5751L38.746 75.2957ZM67.7584 84.6908L67.7948 84.4948L68.0207 83.3083L68.4058 81.8494L68.6431 80.9967L68.7836 80.492L68.8055 80.4192L67.9833 80.8034L67.0612 81.3353L65.9775 81.9924L64.9835 82.6158L64.8544 82.706L65.1939 82.7725L65.9321 82.9022L66.4731 83.1021L67.013 83.4202L67.4242 83.8397L67.643 84.2819L67.7584 84.6908ZM72.009 81.8586L71.8968 81.8626L71.7137 81.8895L71.5899 81.9435C71.3267 82.0802 71.2445 82.1338 71.1371 82.4134C70.8641 83.3022 70.7507 83.869 70.8084 84.801L70.8493 85.082C70.9813 85.515 71.0696 85.7099 71.498 85.458L71.7014 85.2222L71.9753 84.8308L72.2 84.3286C72.4102 83.8281 72.6109 83.3426 72.5597 82.7918C72.5004 82.3506 72.427 82.0438 72.009 81.8586ZM98.8512 74.4997L97.4642 77.5918L96.9768 78.9599L96.52 80.6927C96.3581 81.3726 96.234 82.0726 96.1578 82.7889L95.996 84.6313C96.0799 85.1584 96.0722 85.4006 96.316 85.8791L96.472 86.1435L96.5128 86.1814L96.5452 86.1769L96.7805 85.9557L97.0895 85.3649C97.5975 84.2133 97.9798 82.9491 98.1573 81.4921L98.3744 80.2216L98.5036 78.7674L98.6043 77.4189L98.7704 75.7496L98.8136 74.7228L98.8512 74.4997ZM89.0262 39.4617L89.237 39.2155L89.2718 39.0353L89.0701 38.7804L88.8382 38.6774L88.6301 38.668L88.4225 38.7611L88.0005 39.3334L87.3804 40.4891L87.15 41.1378L87.1444 41.4362L87.3411 41.6474L87.6909 41.7822L87.9161 41.7662L88.0987 41.6369L88.3015 41.1468L88.4901 40.6999L88.6024 40.3729L88.7487 39.9039L89.0262 39.4617Z" fill="#131313"/>
</svg>
