<svg width="1226" height="491" viewBox="0 0 1226 491" fill="none" xmlns="http://www.w3.org/2000/svg">
<path d="M373.69 354.42H278.79L242.29 490.93H139.36L175.86 354.42H0.660034L5.04003 339.09L355.44 0.369995H374.42L286.09 328.87H380.99L373.69 354.42ZM183.16 328.87L234.99 136.15L36.43 328.87H183.16Z" fill="#F1F2F2"/>
<path d="M711.794 0.369995C757.054 0.369995 792.337 12.2933 817.644 36.14C842.951 59.5 855.604 91.8633 855.604 133.23C855.604 176.543 843.681 218.883 819.834 260.25C795.987 301.13 764.111 334.467 724.204 360.26C684.784 385.567 642.201 398.22 596.454 398.22C551.681 398.22 516.154 386.54 489.874 363.18C464.081 339.333 451.184 306.483 451.184 264.63C451.184 221.317 463.107 179.22 486.954 138.34C511.287 97.46 543.407 64.3667 583.314 39.06C623.221 13.2667 666.047 0.369995 711.794 0.369995ZM700.114 13.51C673.834 13.51 649.744 26.65 627.844 52.93C605.944 78.7233 588.667 112.303 576.014 153.67C563.847 194.55 557.764 236.403 557.764 279.23C557.764 315.73 562.387 342.497 571.634 359.53C580.881 376.563 593.047 385.08 608.134 385.08C634.901 385.08 658.991 371.697 680.404 344.93C702.304 318.163 719.094 284.097 730.774 242.73C742.941 201.363 749.024 159.51 749.024 117.17C749.024 81.6433 744.644 55.6067 735.884 39.06C727.124 22.0267 715.201 13.51 700.114 13.51Z" fill="#F1F2F2"/>
<path d="M1217.75 354.42H1122.85L1086.35 490.93H983.423L1019.92 354.42H844.723L849.103 339.09L1199.5 0.369995H1218.48L1130.15 328.87H1225.05L1217.75 354.42ZM1027.22 328.87L1079.05 136.15L880.493 328.87H1027.22Z" fill="#F1F2F2"/>
</svg>
