<svg xmlns="http://www.w3.org/2000/svg" viewBox="0 0 100 100"><path fill="none" stroke="#000" stroke-linecap="round" stroke-linejoin="round" d="M89.41,41.32a38.33,38.33,0,0,1-9.15,3.17q-4.92,1-14.31,2.69L51.64,49.77q3.53.93,13.14,2.58,8.91,1.88,13.37,3a24.13,24.13,0,0,1,7.27,3.05q4.93,3.28,4.93,8a12.32,12.32,0,0,1-3.52,8.21Q82.14,80.5,76.51,80.5a11.48,11.48,0,0,1-6.8-2.35,20.76,20.76,0,0,1-5.63-5.28,104,104,0,0,1-6.34-9.73q-1.41-2.34-6.8-10.79l1.41,11.26q1.4,12.66,1.4,16.42,0,9.85-4.57,14.66A14.29,14.29,0,0,1,38.5,99.5a9.56,9.56,0,0,1-6.45-2.11q-2.46-2.11-2.46-6.57A24.93,24.93,0,0,1,32.29,80Q35,74.39,42,62.9A136.64,136.64,0,0,0,49.3,51.17q-8.44,7.52-11.5,10.56-2.11,1.88-6.69,6.1t-7.85,6.69a51.16,51.16,0,0,1-5.87,3.87A18.38,18.38,0,0,1,9.18,80.5q-5.86,0-8-5.63a10.08,10.08,0,0,1-.47-3.52q0-7.5,9.62-12.67a39,39,0,0,1,9-3.17q4.82-1,14.2-2.69,10.79-1.65,15-2.59Q44.13,49.3,35,47.65,26.77,46.26,22.08,45a25.24,25.24,0,0,1-7.74-3.41q-4.92-3.27-4.93-8a12.38,12.38,0,0,1,3.52-8.21q4.7-5.86,10.33-5.87a11.9,11.9,0,0,1,7,2.35,28,28,0,0,1,5.4,5.51A106.78,106.78,0,0,1,42,37.1q2.82,4.69,7.51,11.73L48.12,37.57A107.23,107.23,0,0,1,46.25,20q0-9.85,4.57-14.66A14.32,14.32,0,0,1,61.5.5a10.09,10.09,0,0,1,6.33,2c1.72,1.33,2.58,3.41,2.58,6.22A24.45,24.45,0,0,1,68,18.8a162,162,0,0,1-8.1,14.78q-6.8,11.73-8.44,14.78,12-11.26,11-10.32c.78-.79,2.74-2.62,5.87-5.52s5.82-5.2,8.09-6.92a40.67,40.67,0,0,1,6.22-4,17,17,0,0,1,8-2.11A7.74,7.74,0,0,1,97,22.32a10.3,10.3,0,0,1,2.23,6.57Q99.27,36.63,89.41,41.32Z"/></svg>