<svg width="84" height="84" viewBox="0 0 84 84" fill="none" xmlns="http://www.w3.org/2000/svg">
<path d="M38.4334 46.8294C38.3223 45.8577 37.8561 44.9612 37.1245 44.3122C36.3928 43.6632 35.4471 43.3074 34.4691 43.3131H29.5276V38.4313C29.5681 36.4638 28.827 34.5605 27.4668 33.1384C26.1065 31.7163 24.2379 30.8915 22.2705 30.8446H19.7225C17.7552 30.8915 15.8866 31.7164 14.5263 33.1384C13.166 34.5605 12.425 36.4638 12.4655 38.4313V43.3131H7.52404C6.546 43.3074 5.60033 43.6632 4.86864 44.3122C4.13694 44.9612 3.6708 45.8577 3.55972 46.8294L0.0198275 79.6513C-0.0356981 80.2036 0.0257155 80.7614 0.20007 81.2884C0.374424 81.8154 0.65781 82.2998 1.03178 82.71C1.40575 83.1202 1.86191 83.447 2.37058 83.6692C2.87925 83.8914 3.42901 84.004 3.98407 83.9997H38.009C38.5641 84.004 39.1138 83.8914 39.6225 83.6692C40.1312 83.447 40.5873 83.1202 40.9613 82.71C41.3353 82.2998 41.6187 81.8154 41.793 81.2884C41.9674 80.7614 42.0288 80.2036 41.9733 79.6513L38.4334 46.8294ZM15.0904 38.4313C15.0497 37.1599 15.5142 35.9241 16.3822 34.9943C17.2503 34.0644 18.4513 33.5162 19.7225 33.4695H22.2705C23.5418 33.5162 24.7428 34.0644 25.6108 34.9943C26.4789 35.9241 26.9434 37.1599 26.9027 38.4313V43.3131H15.0904V38.4313ZM39.0249 80.9065C38.8043 81.154 38.5036 81.3159 38.1756 81.3638C38.1204 81.371 38.0647 81.3747 38.009 81.3747H3.98398C3.79796 81.377 3.61349 81.3406 3.44229 81.2678C3.2711 81.195 3.11692 81.0874 2.98955 80.9518C2.86218 80.8162 2.76441 80.6556 2.70245 80.4802C2.64049 80.3047 2.61569 80.1184 2.62963 79.9328L6.16957 47.1109C6.21058 46.7826 6.37165 46.4811 6.62174 46.2646C6.87183 46.048 7.19323 45.9317 7.524 45.938H34.4691C34.7998 45.9317 35.1212 46.048 35.3713 46.2645C35.6214 46.4811 35.7825 46.7826 35.8235 47.1109L38.6697 73.4999H32.1525C31.8045 73.4999 31.4706 73.6382 31.2245 73.8843C30.9784 74.1305 30.8401 74.4643 30.8401 74.8124C30.8401 75.1605 30.9784 75.4943 31.2245 75.7404C31.4706 75.9866 31.8045 76.1248 32.1525 76.1248H38.9528L39.3635 79.9328C39.3789 80.1098 39.3567 80.2881 39.2983 80.4559C39.24 80.6237 39.1468 80.7772 39.0249 80.9065Z" fill="#C5A477"/>
<path d="M83.5175 47.1086L67.7268 27.5666C66.8207 26.5629 65.5879 25.9133 64.2477 25.7334L54.5163 24.9461C54.4569 24.9413 54.3978 24.9389 54.3391 24.939C54.3332 24.939 54.3278 24.9405 54.322 24.9406C49.2744 20.3801 49.6455 14.9978 50.144 14.0858C50.3892 13.8566 50.5373 13.5421 50.5579 13.2071C50.5784 12.872 50.4698 12.5419 50.2543 12.2845C50.0389 12.027 49.733 11.8619 49.3996 11.8231C49.0662 11.7843 48.7305 11.8747 48.4617 12.0757C47.4819 12.8086 47.2826 14.5655 47.2512 15.5472C47.2035 17.0342 47.4512 22.0552 52.2218 26.5786C52.1931 26.6805 52.1721 26.7845 52.1589 26.8896L51.201 36.1282C51.1339 37.477 51.5335 38.8077 52.3325 39.8964L68.4362 59.5966C68.6132 59.8135 68.8315 59.9931 69.0783 60.1251C69.3251 60.2572 69.5957 60.339 69.8743 60.3659C70.153 60.3928 70.4342 60.3642 70.7017 60.2818C70.9692 60.1994 71.2178 60.0648 71.433 59.8858L83.2127 50.1322C83.6498 49.7689 83.9268 49.2483 83.9838 48.6828C84.0408 48.1172 83.8734 47.5519 83.5175 47.1086ZM70.1474 57.5423L54.3643 38.2345C54.0089 37.6878 53.8173 37.0509 53.812 36.3989L54.7247 27.5965L64.0347 28.3496C64.658 28.4702 65.232 28.7717 65.6851 29.2164L81.1873 48.4013L70.1474 57.5423Z" fill="#131313"/>
<path d="M58.402 33.4695C59.1268 33.4695 59.7144 32.8819 59.7144 32.1571C59.7144 31.4322 59.1268 30.8446 58.402 30.8446C57.6771 30.8446 57.0895 31.4322 57.0895 32.1571C57.0895 32.8819 57.6771 33.4695 58.402 33.4695Z" fill="#131313"/>
<path d="M74.1351 61.0565L73.1075 61.9072C72.6804 62.2616 72.1946 62.5384 71.6721 62.7253L72.812 73.4997H60.3709C60.0228 73.4997 59.689 73.6379 59.4428 73.8841C59.1967 74.1302 59.0584 74.464 59.0584 74.8121C59.0584 75.1602 59.1967 75.4941 59.4428 75.7402C59.689 75.9863 60.0228 76.1246 60.3709 76.1246H73.0897L73.4876 79.8851C73.507 80.0709 73.4875 80.2588 73.4305 80.4368C73.3736 80.6147 73.2802 80.7789 73.1565 80.9189C73.0327 81.059 72.8812 81.1717 72.7116 81.2502C72.542 81.3286 72.3579 81.3709 72.1711 81.3745H44.4852C44.2878 82.3272 43.8804 83.224 43.2927 83.9994H72.1711C72.7265 83.9977 73.2754 83.8792 73.7821 83.6516C74.2888 83.424 74.7419 83.0925 75.1122 82.6785C75.4825 82.2644 75.7616 81.7772 75.9314 81.2484C76.1012 80.7195 76.158 80.1609 76.0979 79.6087L74.1351 61.0565Z" fill="#131313"/>
<path d="M19.0936 23.5158C19.1253 23.188 19.2775 22.8837 19.5207 22.6616C19.7638 22.4396 20.0808 22.3157 20.4101 22.3139H46.0376C45.668 21.4643 45.3667 20.5865 45.1368 19.689H32.8086V10.7257C32.8538 8.53683 33.765 6.45522 35.3425 4.9371C36.92 3.41897 39.035 2.5882 41.2239 2.62687H45.3927C47.5817 2.58819 49.6967 3.41896 51.2742 4.93708C52.8516 6.4552 53.7629 8.53683 53.8081 10.7257V19.689H53.4926C53.5876 19.8728 55.3105 22.2183 55.4026 22.3139H66.2066C66.5359 22.3157 66.8528 22.4396 67.096 22.6616C67.3392 22.8837 67.4914 23.188 67.5231 23.5158L67.5899 24.1478C68.4195 24.5976 69.1583 25.1974 69.7689 25.9168L70.5143 26.8394L70.1335 23.2396C70.0331 22.2673 69.5763 21.3665 68.8512 20.7109C68.1262 20.0553 67.1841 19.6913 66.2066 19.689H56.433V10.7257C56.3872 7.84081 55.1993 5.09184 53.1297 3.08157C51.06 1.07129 48.2777 -0.0362054 45.3927 0.00192975H41.2239C38.339 -0.0361948 35.5566 1.07131 33.487 3.08158C31.4174 5.09185 30.2294 7.84082 30.1836 10.7257V19.689H20.4101C19.4325 19.6913 18.4905 20.0553 17.7654 20.7109C17.0404 21.3665 16.5836 22.2673 16.4832 23.2396L15.8708 29.0282C16.7353 28.6502 17.651 28.4023 18.5882 28.2927L19.0936 23.5158Z" fill="#131313"/>
</svg>
