<svg width="100" height="83" viewBox="0 0 100 83" fill="none" xmlns="http://www.w3.org/2000/svg">
<path d="M45.8906 67.4375C46.6069 67.4375 47.1875 66.8569 47.1875 66.1406C47.1875 65.4244 46.6069 64.8438 45.8906 64.8438C45.1744 64.8438 44.5938 65.4244 44.5938 66.1406C44.5938 66.8569 45.1744 67.4375 45.8906 67.4375Z" fill="#131313"/>
<path d="M82.2031 22.0469H66.6406V14.2656C66.6406 6.40008 60.8047 0 53.6719 0C46.5391 0 40.7031 6.40008 40.7031 14.2656V22.0469H24.4922C23.7187 22.0291 22.9503 22.1774 22.2389 22.4816C21.5275 22.7859 20.8896 23.239 20.3681 23.8106L16.5812 10.0119L16.5488 9.90812C16.2987 9.29193 15.8738 8.76231 15.3266 8.38443C14.7794 8.00655 14.1336 7.79689 13.4688 7.78125H1.79688C1.45292 7.78125 1.12306 7.91789 0.879846 8.1611C0.636635 8.40431 0.5 8.73417 0.5 9.07812C0.5 9.42208 0.636635 9.75194 0.879846 9.99515C1.12306 10.2384 1.45292 10.375 1.79688 10.375H13.4688C13.6003 10.3883 13.7271 10.4314 13.8395 10.501C13.9518 10.5707 14.0468 10.6651 14.1172 10.777L23.1953 43.99L27.6306 61.433C28.1147 63.1284 29.1273 64.6251 30.521 65.7051C31.9148 66.7851 33.6168 67.392 35.3795 67.4375H40.742C41.086 67.4375 41.4158 67.3009 41.6591 67.0577C41.9023 66.8144 42.0389 66.4846 42.0389 66.1406C42.0389 65.7967 41.9023 65.4668 41.6591 65.2236C41.4158 64.9804 41.086 64.8438 40.742 64.8438H35.3795C34.2034 64.7821 33.0748 64.3602 32.1468 63.6352C31.2188 62.9101 30.5363 61.9172 30.192 60.791L28.3245 53.5415C28.3617 53.4217 28.3813 53.2972 28.3828 53.1719H73.7734C74.1174 53.1719 74.4473 53.0352 74.6905 52.792C74.9337 52.5488 75.0703 52.219 75.0703 51.875C75.0703 51.531 74.9337 51.2012 74.6905 50.958C74.4473 50.7148 74.1174 50.5781 73.7734 50.5781H27.7344L25.7307 43.3351L24.6024 38.9062H79.6094C79.9533 38.9062 80.2832 38.7696 80.5264 38.5264C80.7696 38.2832 80.9062 37.9533 80.9062 37.6094C80.9062 37.2654 80.7696 36.9356 80.5264 36.6923C80.2832 36.4491 79.9533 36.3125 79.6094 36.3125H23.941L21.8401 28.0514C21.6935 27.6457 21.652 27.2096 21.7195 26.7835C21.787 26.3575 21.9613 25.9555 22.226 25.615C22.4908 25.2745 22.8375 25.0066 23.2337 24.8362C23.63 24.6658 24.0629 24.5985 24.4922 24.6406H40.7031V27.2344H40.0547C39.7107 27.2344 39.3809 27.371 39.1377 27.6142C38.8944 27.8574 38.7578 28.1873 38.7578 28.5312C38.7578 28.8752 38.8944 29.2051 39.1377 29.4483C39.3809 29.6915 39.7107 29.8281 40.0547 29.8281H43.9453C44.2893 29.8281 44.6191 29.6915 44.8623 29.4483C45.1056 29.2051 45.2422 28.8752 45.2422 28.5312C45.2422 28.1873 45.1056 27.8574 44.8623 27.6142C44.6191 27.371 44.2893 27.2344 43.9453 27.2344H43.2969V24.6406H64.0469V27.2344H63.3984C63.0545 27.2344 62.7246 27.371 62.4814 27.6142C62.2382 27.8574 62.1016 28.1873 62.1016 28.5312C62.1016 28.8752 62.2382 29.2051 62.4814 29.4483C62.7246 29.6915 63.0545 29.8281 63.3984 29.8281H67.2891C67.633 29.8281 67.9629 29.6915 68.2061 29.4483C68.4493 29.2051 68.5859 28.8752 68.5859 28.5312C68.5859 28.1873 68.4493 27.8574 68.2061 27.6142C67.9629 27.371 67.633 27.2344 67.2891 27.2344H66.6406V24.6406H82.2031C82.5471 24.6406 82.8769 24.504 83.1202 24.2608C83.3634 24.0176 83.5 23.6877 83.5 23.3438C83.5 22.9998 83.3634 22.6699 83.1202 22.4267C82.8769 22.1835 82.5471 22.0469 82.2031 22.0469ZM43.2969 22.0469V14.2656C43.2969 7.82664 47.9527 2.59375 53.6719 2.59375C59.3911 2.59375 64.0469 7.82664 64.0469 14.2656V22.0469H43.2969Z" fill="#131313"/>
<path d="M70.5312 66.1406C70.5312 65.7967 70.3946 65.4668 70.1514 65.2236C69.9082 64.9804 69.5783 64.8438 69.2344 64.8438H51.0781C50.7342 64.8438 50.4043 64.9804 50.1611 65.2236C49.9179 65.4668 49.7812 65.7967 49.7812 66.1406C49.7812 66.4846 49.9179 66.8144 50.1611 67.0577C50.4043 67.3009 50.7342 67.4375 51.0781 67.4375H69.2344C69.5783 67.4375 69.9082 67.3009 70.1514 67.0577C70.3946 66.8144 70.5312 66.4846 70.5312 66.1406Z" fill="#131313"/>
<path d="M40.0547 70.0312C38.7722 70.0312 37.5185 70.4115 36.4522 71.1241C35.3858 71.8366 34.5547 72.8493 34.0639 74.0342C33.5731 75.219 33.4447 76.5228 33.6949 77.7807C33.9451 79.0385 34.5627 80.1939 35.4695 81.1008C36.3764 82.0076 37.5318 82.6252 38.7896 82.8754C40.0475 83.1256 41.3513 82.9972 42.5362 82.5064C43.721 82.0156 44.7337 81.1845 45.4463 80.1181C46.1588 79.0518 46.5391 77.7981 46.5391 76.5156C46.5391 74.7959 45.8559 73.1465 44.6398 71.9305C43.4238 70.7144 41.7745 70.0312 40.0547 70.0312ZM40.0547 80.4062C39.2852 80.4062 38.533 80.1781 37.8932 79.7506C37.2534 79.323 36.7547 78.7154 36.4602 78.0045C36.1657 77.2936 36.0887 76.5113 36.2388 75.7566C36.3889 75.0019 36.7595 74.3087 37.3036 73.7645C37.8477 73.2204 38.541 72.8499 39.2957 72.6998C40.0504 72.5496 40.8326 72.6267 41.5436 72.9212C42.2545 73.2156 42.8621 73.7143 43.2896 74.3541C43.7171 74.9939 43.9453 75.7461 43.9453 76.5156C43.9453 77.5475 43.5354 78.5371 42.8058 79.2667C42.0761 79.9963 41.0865 80.4062 40.0547 80.4062Z" fill="#131313"/>
<path d="M73.7734 70.0312C72.4909 70.0312 71.2373 70.4115 70.1709 71.1241C69.1046 71.8366 68.2734 72.8493 67.7827 74.0342C67.2919 75.219 67.1635 76.5228 67.4137 77.7807C67.6639 79.0385 68.2814 80.1939 69.1883 81.1008C70.0951 82.0076 71.2506 82.6252 72.5084 82.8754C73.7662 83.1256 75.07 82.9972 76.2549 82.5064C77.4398 82.0156 78.4525 81.1845 79.165 80.1181C79.8775 79.0518 80.2578 77.7981 80.2578 76.5156C80.2578 74.7959 79.5746 73.1465 78.3586 71.9305C77.1425 70.7144 75.4932 70.0312 73.7734 70.0312ZM73.7734 80.4062C73.0039 80.4062 72.2517 80.1781 71.6119 79.7506C70.9721 79.323 70.4734 78.7154 70.179 78.0045C69.8845 77.2936 69.8075 76.5113 69.9576 75.7566C70.1077 75.0019 70.4782 74.3087 71.0224 73.7645C71.5665 73.2204 72.2597 72.8499 73.0144 72.6998C73.7691 72.5496 74.5514 72.6267 75.2623 72.9212C75.9732 73.2156 76.5809 73.7143 77.0084 74.3541C77.4359 74.9939 77.6641 75.7461 77.6641 76.5156C77.6641 77.5475 77.2542 78.5371 76.5245 79.2667C75.7949 79.9963 74.8053 80.4062 73.7734 80.4062Z" fill="#131313"/>
<path d="M19.9531 46.6875C19.9531 46.3435 19.8165 46.0137 19.5733 45.7705C19.3301 45.5273 19.0002 45.3906 18.6562 45.3906H1.79688C1.45292 45.3906 1.12306 45.5273 0.879846 45.7705C0.636635 46.0137 0.5 46.3435 0.5 46.6875C0.5 47.0315 0.636635 47.3613 0.879846 47.6045C1.12306 47.8477 1.45292 47.9844 1.79688 47.9844H18.6562C19.0002 47.9844 19.3301 47.8477 19.5733 47.6045C19.8165 47.3613 19.9531 47.0315 19.9531 46.6875Z" fill="#C5A477"/>
<path d="M17.3594 42.7969C17.7033 42.7969 18.0332 42.6602 18.2764 42.417C18.5196 42.1738 18.6562 41.844 18.6562 41.5C18.6562 41.156 18.5196 40.8262 18.2764 40.583C18.0332 40.3398 17.7033 40.2031 17.3594 40.2031H8.28125C7.9373 40.2031 7.60743 40.3398 7.36422 40.583C7.12101 40.8262 6.98438 41.156 6.98438 41.5C6.98438 41.844 7.12101 42.1738 7.36422 42.417C7.60743 42.6602 7.9373 42.7969 8.28125 42.7969H17.3594Z" fill="#C5A477"/>
<path d="M19.9531 50.5781H8.28125C7.9373 50.5781 7.60743 50.7148 7.36422 50.958C7.12101 51.2012 6.98438 51.531 6.98438 51.875C6.98438 52.219 7.12101 52.5488 7.36422 52.792C7.60743 53.0352 7.9373 53.1719 8.28125 53.1719H19.9531C20.2971 53.1719 20.6269 53.0352 20.8702 52.792C21.1134 52.5488 21.25 52.219 21.25 51.875C21.25 51.531 21.1134 51.2012 20.8702 50.958C20.6269 50.7148 20.2971 50.5781 19.9531 50.5781Z" fill="#C5A477"/>
</svg>
