<svg width="110" height="76" viewBox="0 0 110 76" fill="none" xmlns="http://www.w3.org/2000/svg">
	<g>
		<path fill='#C5A477' d="M47.6,28.6c0.3,0,0.7-0.2,0.9-0.4c1.4-1.5,2.5-3.3,3.2-5.3c0.7-2,1-4,0.9-6.1c-0.1-2.1-0.6-4.1-1.4-6 c-0.9-1.9-2.1-3.6-3.6-5c-0.1-0.1-0.3-0.2-0.4-0.3c-0.1-0.1-0.3-0.1-0.4-0.1c0,0,0,0-0.1,0c-0.2,0-0.3,0.1-0.5,0.1 c-0.2,0.1-0.3,0.2-0.4,0.3l0,0c-0.1,0.1-0.2,0.3-0.3,0.4c-0.1,0.2-0.1,0.3-0.1,0.5c0,0.2,0.1,0.3,0.1,0.5c0.1,0.2,0.2,0.3,0.3,0.4 c2.5,2.4,4,5.7,4.1,9.2c0.1,3.5-1.1,6.9-3.4,9.5c-0.2,0.3-0.4,0.6-0.3,1c0,0.4,0.2,0.7,0.4,0.9C46.9,28.5,47.3,28.6,47.6,28.6z"/>
		<path fill='#C5A477' d="M51.2,32.2c0.1,0.1,0.3,0.2,0.5,0.3c0.2,0.1,0.4,0.1,0.6,0.1c0.2,0,0.4-0.1,0.6-0.1c0.2-0.1,0.3-0.2,0.5-0.3 c4.3-4.4,6.6-10,6.3-15.9c-0.3-5.9-3-11.4-7.7-15.4c-0.1-0.1-0.3-0.2-0.5-0.3c-0.2-0.1-0.4-0.1-0.5-0.1c0,0,0,0,0,0 c-0.2,0-0.4,0-0.6,0.1c-0.2,0.1-0.3,0.2-0.5,0.3c-0.1,0.1-0.2,0.3-0.3,0.4c-0.1,0.2-0.1,0.3-0.1,0.5c0,0.2,0.1,0.3,0.1,0.5 c0.1,0.2,0.2,0.3,0.3,0.4c4.2,3.6,6.6,8.4,6.8,13.6c0.2,5.2-1.7,10.2-5.6,14.1l0,0c-0.1,0.1-0.2,0.3-0.3,0.4 c-0.1,0.2-0.1,0.3-0.1,0.5c0,0.2,0,0.3,0.1,0.5C50.9,32,51,32.1,51.2,32.2z"/>
		<path fill='#C5A477' d="M22.6,34.5c0.2,0.1,0.4,0.1,0.6,0.1c0.2,0,0.4,0,0.6-0.1c0.2-0.1,0.3-0.2,0.5-0.3c0.1-0.1,0.2-0.3,0.3-0.5 c0.1-0.2,0.1-0.3,0.1-0.5c0-0.2-0.1-0.4-0.1-0.5c-0.1-0.2-0.2-0.3-0.3-0.4c-4.2-3.7-6.6-8.6-6.8-14c-0.2-5.4,1.7-10.5,5.6-14.5 c0.1-0.1,0.2-0.3,0.3-0.5c0.1-0.2,0.1-0.3,0.1-0.5c0-0.2,0-0.4-0.1-0.5C23.1,2,23,1.9,22.8,1.8c-0.1-0.1-0.3-0.2-0.5-0.3 c-0.2-0.1-0.4-0.1-0.6-0.1s-0.4,0.1-0.6,0.1c-0.2,0.1-0.3,0.2-0.5,0.3l0,0c-4.3,4.5-6.6,10.3-6.3,16.4c0.3,6.1,3,11.7,7.7,15.9 C22.3,34.3,22.4,34.4,22.6,34.5L22.6,34.5z"/>
		<path fill='#C5A477' d="M22.3,12.1c-0.7,2-1,4-0.9,6.1c0.1,2.1,0.6,4.1,1.4,6c0.9,1.9,2.1,3.6,3.6,5c0.3,0.2,0.6,0.4,0.9,0.3 c0.3,0,0.7-0.2,0.9-0.4c0.2-0.3,0.4-0.6,0.3-1c0-0.4-0.2-0.7-0.4-0.9c-2.5-2.4-4-5.7-4.2-9.2c-0.1-3.5,1.1-6.9,3.4-9.5 c0.2-0.3,0.4-0.6,0.3-1c0-0.4-0.2-0.7-0.4-0.9c-0.3-0.2-0.6-0.4-0.9-0.3c-0.3,0-0.7,0.2-0.9,0.4l0,0l0,0 C24.1,8.4,23.1,10.2,22.3,12.1z"/>
	</g>
	<g>
		<path fill='#131313' d="M97,14c-1,0-2,0.3-2.8,0.8c-0.8,0.5-1.5,1.3-1.8,2.2C92,18,91.9,19,92.1,20c0.2,1,0.7,1.9,1.4,2.6 c0.7,0.7,1.6,1.2,2.6,1.4c1,0.2,2,0.1,2.9-0.3c0.9-0.4,1.7-1,2.2-1.8C101.7,21,102,20,102,19c0-1.3-0.5-2.6-1.5-3.5 C99.6,14.5,98.3,14,97,14z M97,21.6c-0.5,0-1-0.2-1.4-0.4c-0.4-0.3-0.8-0.7-0.9-1.2c-0.2-0.5-0.2-1-0.1-1.5c0.1-0.5,0.3-1,0.7-1.3 c0.4-0.4,0.8-0.6,1.3-0.7c0.5-0.1,1,0,1.5,0.1c0.5,0.2,0.9,0.5,1.2,0.9c0.3,0.4,0.4,0.9,0.4,1.4c0,0.7-0.3,1.3-0.8,1.8 C98.3,21.3,97.7,21.6,97,21.6z"/>
		<path fill='#131313' d="M27.5,57.6c0.1,0.2,0.1,0.3,0.3,0.5c0.1,0.1,0.3,0.3,0.5,0.3c0.2,0.1,0.4,0.1,0.6,0.2c0.2,0,0.4,0,0.6,0 c0.2-0.1,0.4-0.1,0.5-0.3c0.2-0.1,0.3-0.3,0.4-0.4c0.1-0.2,0.1-0.3,0.2-0.5l3.1-27.7c-1-0.3-2-0.6-2.9-1.1l-3.2,28.5 C27.4,57.3,27.4,57.4,27.5,57.6z"/>
		<path fill='#131313' d="M60,29.8c-0.1,0.1-0.3,0.2-0.4,0.4c-0.1,0.1-0.2,0.3-0.2,0.5c0,0.2,0,0.4,0,0.5c0,0.2,0.1,0.3,0.2,0.5 c0.1,0.1,0.2,0.3,0.4,0.4c0.2,0.1,0.3,0.2,0.5,0.2l33.7,5.6L79.3,52.3C79.1,52.5,79,52.8,79,53c-0.1,0.3,0,0.5,0.1,0.8 c0.1,0.2,0.3,0.5,0.5,0.6c0.2,0.1,0.5,0.2,0.7,0.2H104c0.4,0,0.7-0.1,0.9-0.4c0.3-0.2,0.4-0.6,0.4-0.9c0-0.4-0.1-0.7-0.4-0.9 c-0.3-0.3-0.6-0.4-0.9-0.4H83.5L98,37.9c1.2-1.3,11.6-12.6,11.6-19c0-3.3-1.3-6.5-3.7-8.8c-2.3-2.3-5.6-3.7-8.9-3.7 c-3.4,0-6.5,1.3-8.9,3.7c-2.4,2.4-3.7,5.5-3.7,8.8c0,4.5,5.3,11.6,8.4,15.4l0.7,0.8L61,29.6c-0.1,0-0.1,0-0.2,0c-0.1,0-0.2,0-0.3,0 C60.3,29.7,60.1,29.7,60,29.8z M87.1,18.8c0-2.6,1-5.1,2.9-7C91.9,10,94.4,9,97,9s5.1,1,7,2.9c1.9,1.9,2.9,4.3,2.9,7 c0,3.7-5.2,10.8-9.6,15.8L97,35l-0.3-0.3C92.3,29.6,87.1,22.5,87.1,18.8z"/>
		<path fill='#131313' d="M29.1,14c-0.7,1.7-0.8,3.5-0.5,5.3c0.3,1.8,1.1,3.4,2.4,4.7c1.2,1.3,2.7,2.1,4.4,2.5c1.7,0.4,3.4,0.2,5-0.5 c1.6-0.7,2.9-1.8,3.9-3.3c1-1.5,1.5-3.3,1.5-5.1c0-2.4-0.9-4.7-2.5-6.4c-1.6-1.7-3.8-2.7-6.1-2.7c-1.7,0-3.4,0.5-4.8,1.5 C30.8,10.9,29.7,12.3,29.1,14z M32.7,13c0.9-0.9,1.9-1.5,3.1-1.8s2.4-0.1,3.6,0.4c1.1,0.5,2.1,1.3,2.7,2.4c0.7,1.1,1,2.3,1,3.6 c0,1.7-0.6,3.3-1.8,4.5c-1.2,1.2-2.7,1.9-4.3,1.9c-1.2,0-2.4-0.4-3.4-1.1c-1-0.7-1.8-1.7-2.3-2.9c-0.5-1.2-0.6-2.5-0.3-3.7 C31.2,15,31.8,13.9,32.7,13z"/>
		<path fill='#131313' d="M43.5,58.3c0.2,0.2,0.6,0.4,0.8,0.3h0.2c0.1,0,0.3-0.1,0.4-0.1c0.1-0.1,0.3-0.2,0.4-0.3 c0.1-0.1,0.2-0.3,0.2-0.5c0-0.2,0.1-0.4,0-0.5l-2.8-28.4c-0.8,0.4-1.6,0.8-2.4,1l2.7,27.7C43.1,57.7,43.3,58,43.5,58.3z"/>
		<path fill='#131313' d="M0.4,59v6c0,6.9,18.3,10.7,35.6,10.7c14.8,0,32.1-2.7,36.3-8l0.1-0.1h0.2l32.7,0.1c1.2,0,2.2-0.5,3.1-1.3 c0.8-0.8,1.3-1.9,1.3-3c0-1.1-0.4-2.2-1.2-3s-1.9-1.3-3-1.3l-29-1.3c-0.4,0-0.7,0.1-1,0.3c-0.3,0.2-0.4,0.6-0.4,0.9 c0,0.2,0,0.3,0.1,0.5c0.1,0.2,0.1,0.3,0.3,0.4c0.1,0.1,0.3,0.2,0.4,0.3c0.2,0.1,0.3,0.1,0.5,0.1l29.1,1.3c0.2,0,0.4,0,0.6,0.1 c0.2,0.1,0.4,0.2,0.6,0.4c0.2,0.2,0.3,0.3,0.4,0.5c0.1,0.2,0.1,0.4,0.1,0.6c0,0.5-0.2,0.9-0.5,1.2c-0.3,0.3-0.7,0.5-1.2,0.5 l-33.6-0.1c-0.3,0-0.5,0.1-0.7,0.2c-0.2,0.1-0.4,0.3-0.5,0.5C68.6,69.5,52.5,73,36,73c-0.1,0-0.1,0-0.2,0c-18.7,0-32.7-4.2-32.7-8 v-2.5l0.6,0.4c1.7,1.1,3.5,1.9,5.4,2.5c6.7,2.3,16.4,3.6,26.8,3.6c10.4,0,20.1-1.3,26.8-3.5c5.8-2,8.7-4.5,8.7-7.4 c0-4.8-8.1-8.6-21.7-10.2l0.3,2.7C60.8,51.8,68.6,55,68.6,58c0,1.3-1.8,3.2-6.9,5c-6.3,2.2-15.7,3.4-25.9,3.4 c-10,0-19.5-1.3-25.9-3.4c-5.1-1.8-6.9-3.8-6.9-5c0-3.3,9.2-6.6,21.5-7.9l0.3-2.6C9.7,48.8,0.4,52.8,0.4,57.9c0,0.2,0,0.4,0,0.6 l0,0.1l0,0.1C0.4,58.8,0.4,58.9,0.4,59z"/>
	</g>
</svg>
