<svg width="129" height="124" viewBox="0 0 129 124" fill="none" xmlns="http://www.w3.org/2000/svg">
<path fill-rule="evenodd" clip-rule="evenodd" d="M29.244 98.7542C29.9095 98.1551 30.5986 97.733 31.3349 97.2328C32.1184 96.816 32.5479 96.5034 33.4211 96.5346L33.9875 96.7535L34.3226 97.2224L34.45 97.5923L34.3084 98.1238H33.8836L33.6382 98.129L33.4211 98.2541C32.0476 98.6813 31.1273 99.3638 30.2777 100.375L29.5036 101.25C28.8145 102.021 28.3331 102.766 27.7007 103.558L27.2806 103.923C26.4452 103.668 26.549 103.647 25.9685 102.938L25.9826 102.521L26.195 102.011C26.516 100.713 26.8889 99.5306 27.1532 98.2124L27.3844 97.212L27.4741 96.9932L27.7762 96.7587L28.0877 96.717L28.4464 97.0505L28.7154 97.7174L28.5927 98.6448L28.4842 99.3795L28.5502 99.3013L29.244 98.7542ZM63.4675 59.3747L64.4445 57.4885L68.362 50.4598C70.0328 47.5472 71.7508 44.8014 73.4547 41.9409L76.4848 37.5591L77.188 36.7202L77.3863 36.3242L77.5845 36.2096L77.9338 36.293L78.1226 36.491L78.1981 36.6994L78.2075 36.939C77.3674 38.8981 76.4187 40.5654 75.3096 42.3474C73.4027 45.411 71.6328 48.6154 69.8534 51.7676L69.6552 52.2678L69.2965 52.9608C68.4847 54.4509 66.1625 58.6817 65.549 60.0885L65.3885 60.4115L65.2988 60.6668L65.379 60.7762L65.8369 60.5105L66.9602 59.6664L68.244 58.8849L69.3862 58.317L69.7826 58.1502L70.231 58.0877L70.5189 58.0669L70.7832 58.1294L70.9296 58.2128C71.9066 58.7494 72.388 58.9683 72.978 59.9895V60.3959C72.8883 61.3233 72.624 62.5321 72.3691 63.4283L72.3172 63.7774L72.2275 64.0327L72.2794 64.3662L72.6381 64.387L73.5396 63.8555L75.2435 62.9229L79.3497 60.8752L80.5958 60.2552L81.8182 59.7915L82.3327 59.3069L83.4937 57.624L87.9445 51.132L89.8938 48.3132L92.6124 44.4784L94.9818 41.05L97.5211 37.7779L98.9229 36.095L99.5128 35.4645L99.8007 35.3082L100.041 35.2613L100.292 35.4176L100.391 35.5896L100.428 35.7667L100.391 36.1002L100.15 36.6264L99.9093 36.7984L99.5883 37.2725L98.9559 38.1114L98.4037 38.9346L98.3093 39.3097L97.9883 39.5807L97.422 40.3935L96.4685 42.1181L95.9588 42.8267L95.619 43.2539L95.3924 43.7698L94.9488 44.3012L94.8827 44.6868L94.6939 45.0307L94.3446 45.4058L94.0898 45.7705L93.8254 46.229L93.6083 46.5833L93.2591 47.1044L92.6738 47.839L92.3717 48.3184L92.2962 48.6623L92.1924 48.9019L91.9281 49.1624L91.7393 49.4438L91.5316 49.8711L90.918 50.6891L90.3328 51.5852L90.2761 51.877L89.908 52.1167L89.823 52.4293L89.4549 52.9191L89.0018 53.7527L88.6336 54.2946L88.2749 54.6385C87.9351 55.2689 86.8212 57.1915 86.2029 57.6553L86.0802 57.8637L86.0283 57.9835L86.1463 58.0565L86.3304 58.0252L88.2513 57.2801L91.895 56.0296L92.9853 55.5763L93.665 55.2585L94.0284 55.1439L94.2408 55.4096L94.4673 55.6962L94.7081 55.8785L94.9346 56.014L95.0998 56.3318V56.8841L94.8402 57.2176L94.3257 57.5667L93.7971 57.8012L93.3582 58.02L92.7068 58.4733L92.1593 58.7077L91.0077 59.458L90.3564 59.9165L89.6012 60.1823L88.9215 60.6356C88.3929 60.969 87.1705 61.761 86.7268 62.1413L86.4248 62.4435L86.1652 62.6936L85.8914 62.8968L85.4666 63.298L84.8153 63.8555C84.6406 64.0066 84.7256 64.0692 84.735 64.1473L84.9238 64.7517C85.3439 65.8198 85.3864 66.1324 86.033 67.1016C86.4012 67.5809 87.1091 67.2683 87.2413 67.2475C89.7853 66.6587 92.4473 64.6788 94.7788 63.3293L99.3193 60.7762L100.386 60.2708L101.146 60.1875L102.736 58.5514L103.647 57.6136L103.964 57.3583L104.303 57.4573L104.643 57.8585L104.681 58.1086L104.45 58.541L103.525 60.1041L102.958 60.7241L102.425 61.464L101.557 62.6728L100.683 63.9389L100.06 64.8142L99.4656 65.7417L99.1777 66.2471L98.9181 66.7837L98.7954 67.1849L98.8096 67.3725L98.9276 67.4611L99.5742 67.2266L101.061 66.3617L103.765 64.8663L106.517 63.3658L109.17 61.7818L110.123 61.1879L110.812 60.672L112.752 58.6869L113.72 57.8533L114.272 57.4312L114.512 57.2645L114.663 57.202L114.923 57.1707L115.131 57.2384L115.32 57.4L115.452 57.5875L115.466 57.7386L115.428 57.8949L115.32 58.1034L115.098 58.3743L114.857 58.5619L114.522 59.0152L114.418 59.1454L114.319 59.135L114.102 59.2913L114.04 59.4685L113.866 59.7238L113.026 60.4793L112.61 61.1045L111.921 61.7818L111.463 62.4904L111.02 63.2511L110.845 63.5221L110.694 63.6419L110.666 63.7826L110.751 63.9076L111.124 63.7878L111.907 63.2407L113.059 62.6259L113.762 62.2143L115.107 61.6255L116.92 60.9638L117.793 60.7919L118.392 60.7971L118.826 60.9951L119.355 61.3546L119.643 61.7454L119.921 62.1153L120.049 62.5009L120.072 63.0427L120.03 63.3397L119.794 63.7513L119.511 64.288L119.364 64.5746L119.27 64.7257L119.246 64.8663L119.383 64.9445L119.619 64.8455L121.12 64.2411L122.031 63.9962L125.071 62.7718L126.609 62.1413L127.766 61.8183L128.181 61.9902L128.549 62.3654L128.936 62.7405L128.738 63.1157L127.322 63.7618L124.306 65.0174L122.413 65.8824L121.366 66.4086L120.474 66.6795L119.874 66.9348L119.072 67.039L117.887 66.716L117.486 66.1741L117.099 65.5958L116.943 65.2415L116.99 64.7152L117.439 63.9181L117.656 63.5429L117.854 63.1469L118 62.9125L117.972 62.6988L117.849 62.6311L117.51 62.7353L116.863 62.9437L115.924 63.3501L113.436 64.5641L111.723 65.5854L110.968 66.0126L110.505 66.4868L109.797 66.5701L109.028 66.4347L108.301 65.7052L108.056 65.2467L108.046 64.8403L108.15 64.5016L108.348 64.1577L108.509 63.8712L108.792 63.5325L108.948 63.1678L108.891 63.0896L108.65 63.2147L108.098 63.6628L107.154 64.3245L105.436 65.2467L103.959 66.1325L101.533 67.5705L100.046 68.352L99.3382 68.6126L98.7199 68.7949L98.1488 68.8366L97.7618 68.6699L97.1671 68.2426L96.9688 67.8414L96.898 67.508L96.9169 66.9817L97.3983 65.8459L98.1441 64.585L99.1116 63.0896L99.7016 62.3289L99.8998 62.0632L100.027 61.9434V61.8079L99.8763 61.7662L99.7771 61.8548L99.5034 62.1101L98.7765 62.5373C97.7523 63.3501 95.4915 64.2307 93.8632 65.4082L93.5517 65.7208L92.6785 66.3513C91.0455 67.5601 89.6767 68.326 87.5386 68.8574C86.118 69.0085 85.41 68.7376 84.787 67.9092C84.0979 66.8984 83.7297 66.2419 83.3238 65.0487L83.2247 64.1942V63.9181L83.1681 63.866L83.0642 63.892L82.9698 63.9806C82.2807 64.4912 81.738 65.0539 81.0866 65.6375L79.7556 66.8879L79.0949 67.831L78.6559 68.3989L78.0754 68.9356L77.7355 69.0971L77.3863 69.1492L76.9804 69.118L76.6217 69.0763L76.381 68.9252L76.0978 68.7324L75.9515 68.4302L75.8948 68.0967L75.9231 67.7737L76.0789 67.2475L76.2913 66.9453L76.447 66.7108L76.5131 66.4086L76.6594 65.9501L76.9709 65.5958L77.7497 64.9184L78.5568 64.0744L79.5857 62.7457L79.8406 62.4488L80.0483 62.2091L79.8595 62.3185L79.4866 62.5477L78.4105 63.3189C76.2582 64.5641 74.7762 65.5228 72.506 66.3565H72.1001L71.7602 66.1846L71.3402 65.9292L70.9107 65.5854L70.3773 65.0383L70.1366 64.7048L70.0989 64.3297C70.0186 63.3554 70.2688 62.3914 70.4953 61.4536L70.5142 61.0055L70.6416 60.6303L70.67 60.3177L70.5803 60.3073L70.3773 60.4167L69.7638 60.6616L68.9 61.1097C67.6634 61.7193 66.4268 62.6728 65.3838 63.1365L64.9967 63.5533C64.1944 64.3245 61.792 66.5545 61.1359 64.4547L61.0887 64.1786L61.0698 63.8347L61.3011 63.2824C62.0468 61.6568 62.4763 61.167 63.4675 59.3747ZM50.1623 58.2023C49.4496 58.8641 48.7369 59.5206 48.0384 60.2031L48.0242 60.2135L46.7593 61.3233L46.7546 61.3285C44.1257 63.3762 40.6424 66.2627 37.3527 66.5284L37.3197 66.5336L37.2866 66.5284C36.6353 66.4294 36.0028 66.1429 35.6961 65.4603C35.0494 64.0483 36.2105 61.787 36.8666 60.573L36.8713 60.5626L38.2353 58.4368L39.6843 56.3892L43.8944 51.257L44.0785 51.3143C44.338 51.3925 44.7204 51.481 44.8148 51.8041C44.9092 52.1271 44.6165 52.5127 44.4655 52.7732L44.4466 52.8097L43.9888 53.289L43.4554 54.0237C42.4218 55.5138 41.6006 57.0613 40.7368 58.6817C39.9675 59.9947 39.2454 60.9169 38.8772 62.4644C38.8725 62.6676 38.9008 62.9281 39.0471 63.0636C39.8967 63.8608 43.7764 61.1462 44.5221 60.6199C46.2354 59.4059 47.8166 58.0981 49.4449 56.7643L51.5499 54.8625L51.5594 54.8573C51.8662 54.6124 52.3995 54.2425 52.7629 54.5708C53.334 55.0866 52.6072 56.7643 52.3004 57.3322C51.9606 57.921 51.2101 59.432 51.0732 60.0728L50.8797 60.9065C50.6957 62.0476 50.8325 61.985 51.2479 62.9854C51.4367 63.1938 51.583 63.4648 51.5075 63.7722C51.3989 64.2203 50.875 64.4183 50.5305 64.5902C49.9452 64.8768 49.3599 64.783 48.8313 64.4026L48.7181 64.3245L48.6945 64.1786C48.6567 63.9493 48.6189 63.7201 48.5859 63.4908L48.5812 63.47V63.4491C48.5057 61.9902 48.7133 61.5474 49.1995 60.2344L49.2042 60.2239L49.2089 60.2135C49.511 59.5362 49.813 58.8536 50.1623 58.2023ZM11.3465 63.3345L11.1294 63.3085L10.2845 63.0948L9.3547 62.8604L8.74584 62.5477L7.80659 62.084L6.69271 61.4275L5.59299 60.7606L4.86614 60.1302L4.07793 59.3695L3.16228 58.343L2.34103 57.1238L1.79353 56.1964L1.63778 55.5399L1.61418 55.0241L1.85489 54.6645L2.10032 54.477L2.68086 54.378L2.94517 54.9094L3.16228 55.5711L3.45019 56.2381L3.90802 57.0769L4.68679 58.0304L5.57412 58.9839L6.31985 59.4893L7.51868 60.2396L8.25498 60.5835L9.32638 61.0368L10.4167 61.4327L11.927 61.6672L12.1252 61.563L12.1724 61.5005L12.819 60.0781L14.1972 56.5611L15.6273 53.1327L17.6899 48.5997L20.4982 42.1233L23.4434 35.9282L25.3077 32.0466L28.234 26.3569L31.25 20.9173L33.9214 16.5198L36.2247 12.9351L39.0849 9.01174L41.5534 6.23464L44.2012 3.3846L46.5941 1.50888L48.5387 0.654392L49.8697 0.404297L50.6201 0.419928L51.4886 0.711706L52.3712 1.30568L53.216 2.04034L54.4574 3.70243L55.3683 5.49999L56.2603 9.80892L56.3925 11.7732L56.2131 17.046L55.3636 22.0532L54.7311 25.2992L53.4379 29.754L51.7199 34.4485L50.5871 36.9286L48.9116 40.2007L46.4573 44.1032L44.9611 46.625L42.5398 49.8763L41.1663 51.6634L38.4288 54.3676L37.9474 54.7583L36.8241 55.7014L35.2949 56.8529L33.5627 58.0148L30.391 59.6977L27.5308 60.9899L24.477 62.0788L21.9519 62.8343L19.12 63.4491L17.4209 63.5429L15.8633 63.496L14.9713 63.5117L14.7683 63.6315L12.0592 70.5873L5.04549 88.6827L3.07733 94.1275L2.48263 94.3828L1.37347 94.1744L0.377586 93.6846L0.353987 93.5335L0 93.5387L1.1894 90.2875L1.81713 88.516L3.55403 83.9726L6.10274 77.0064L9.04319 69.243L10.3789 65.8771L11.3465 63.3345ZM15.5046 61.1983L15.6179 61.24L17.7371 61.0055L21.277 60.3125L24.3165 59.1975L26.8889 58.0825L29.952 56.3006L34.3651 53.1483L36.6636 51.1267L40.0855 47.4274L41.8885 45.2182L43.4177 42.983L44.9186 40.6905L46.6885 37.1839L48.1281 34.214L49.7989 30.8065L50.3464 29.2642L51.6396 25.7525L52.56 21.2768L52.9423 19.5991L53.4709 13.3832L53.4756 10.778L53.3671 8.66786L53.032 6.44305L52.5647 4.73928L52.121 3.82748L51.6679 3.31686L51.314 3.1814L50.403 2.97298L49.7611 3.16577L48.6331 3.73369L47.3021 4.6455L45.4803 6.24506L43.3516 8.39692L41.7469 10.2987L39.9203 12.8309L38.561 14.6545L36.5551 17.7859L35.1014 20.0993L32.7084 24.2311L28.3567 32.4842L27.0824 35.2822L23.4434 43.0039L21.0835 48.0526L19.5118 51.6061L15.5046 61.1983ZM46.528 69.0138L47.6183 69.639C49.9452 71.0562 53.2916 67.2891 55.0521 65.403C56.3736 63.6836 56.7842 63.1261 57.4828 61.0055C57.8179 57.3531 57.4875 55.8785 56.2415 52.5439L55.6515 51.0486L55.3872 49.9179C55.4674 47.1148 59.1017 44.27 61.5277 44.3169C62.448 44.3898 62.1979 45.2391 61.5371 45.3172C59.9796 45.8799 59.045 46.7084 57.917 47.8651C57.2185 49.0791 56.9117 49.7147 57.2137 51.0642L57.8273 52.7211C59.3896 56.6497 60.1164 57.3895 59.5784 61.8704C58.7571 64.8924 57.1665 66.9192 54.9152 69.0398C53.8627 69.8578 52.8149 70.5664 51.7623 71.3845C50.4644 72.1035 50.2709 72.3431 48.685 72.3484C47.2691 72.3536 46.0844 71.9263 45.0035 70.6133L44.7817 70.1913C44.1729 69.4358 45.046 67.7633 46.528 69.0138ZM68.7065 102.141L68.7679 102.188L68.8434 101.943L68.9284 101.5L68.9378 101.469C69.0794 101.104 69.2257 100.739 69.3956 100.39L69.4098 100.359L69.6269 100.072L69.6977 99.963L69.8393 99.7807L70.1083 99.6713L70.4576 99.5983L70.6888 99.7129L71.0004 100.01L71.0334 100.437L70.9343 100.943L70.8021 101.432L70.6039 101.901L70.349 102.589C69.8487 103.845 69.5608 105.205 69.2021 106.518C69.1596 106.872 69.0935 107.19 69.0416 107.508L69.3343 107.117L69.9195 106.257L70.4623 105.559L71.3638 104.423L71.8452 103.829L72.3738 103.225L72.6665 102.85L72.9921 102.308L73.3461 101.781L73.4216 101.38C73.8039 99.7911 74.2759 98.4729 74.7762 96.9306L75.1963 95.5968L75.7013 94.3255L76.3762 92.4602L76.8388 91.1263L77.188 90.4125L77.6978 89.1673L78.2736 87.698L78.9013 86.2495L79.7462 84.0351L80.2607 82.8107L81.0441 81.1642L81.5161 80.0544L82.0731 79.1009L82.125 78.8352L82.2949 78.3663L82.5592 77.9182L83.2011 77.7306L83.5693 78.0224L83.6778 78.4392L83.5645 79.0332L83.4088 79.6063L83.2058 79.9815L83.1114 80.5859L82.8613 81.0027L82.5592 81.9041L82.3751 82.5658L81.5681 84.2279L81.3226 84.9469L81.1055 85.4679L80.9781 85.9577L80.6005 86.9685L80.2418 87.4739L80.1993 88.021L79.1185 90.548L78.6465 91.7776L78.519 92.3872L78.2878 92.7363L77.2022 95.5082L76.9473 96.1908C76.3149 98.2124 75.6352 100.177 75.0405 102.219L74.6299 103.949L74.1202 106.215L74.0258 106.867L73.955 108.075C73.955 108.112 73.9455 108.164 73.9408 108.227L74.1154 108.039L74.8753 107.059L75.4606 106.346L76.6311 104.908L78.2453 102.891L79.194 101.839L79.5338 101.359L79.6565 100.849L79.9916 99.5202L80.4966 98.0196L81.0205 96.4513L81.2471 95.7948L81.5492 94.9194L81.8229 94.1223L82.1439 93.3407L82.5167 92.4498L83.1681 90.8867L83.3757 90.1781L83.7014 89.5372L83.8855 88.8234L84.4849 87.3124L84.8247 86.635L85.1315 85.7389L85.4761 84.9834L85.7734 84.3217L86.3917 82.6648L86.9392 81.4925L87.5528 80.0127L87.9209 79.2729L88.4212 78.3402L88.7611 77.7254L89.0867 77.4649L89.5021 77.3763L89.8702 77.7619L89.8513 78.5174L89.7145 79.0957L89.2472 80.3358L88.8413 81.3466L88.4354 82.5658L87.9257 83.686L87.3262 85.1293L87.0431 86.2182L86.6183 87.0362L86.2501 88.1148L85.5138 89.7925L85.0466 91.0794L84.8342 91.8454L84.2206 93.0594L83.725 94.4557C83.0359 96.1804 82.5639 97.6705 82.0306 99.4576L81.7852 100.338L81.4595 101.307L81.1669 102.428L80.879 103.23L80.6524 104.308L80.4447 105.491L80.1757 106.721L80.0671 107.638L80.1002 108.039L80.1049 108.075L80.1096 108.07L80.355 107.695L80.8034 106.992C81.6719 105.934 82.4931 105.012 83.4418 104.043L84.0129 103.496L84.466 102.891L84.5415 102.563L84.787 102.094L85.089 101.792C85.594 101.094 86.1321 100.515 86.7079 99.8849C87.4867 99.3639 88.6667 99.3013 88.7327 100.75C88.7705 101.636 87.9445 102.474 87.4537 103.1L87.4254 103.136L86.7646 103.6L86.1368 103.918L85.9575 104.09C85.7545 104.319 85.6129 104.574 85.5233 104.882C85.3675 105.413 85.2354 106.049 85.0985 106.596L85.0513 107.518C85.2495 107.377 85.4477 107.237 85.646 107.096L86.7551 106.142C87.9068 105.027 88.931 104.053 90.1817 103.063C90.8236 102.537 91.4986 101.886 92.1499 101.412L92.4756 101.219L92.6502 101.031L92.7163 100.937L92.7352 100.838L92.7871 100.588C93.4337 100.161 93.7499 100.51 94.2077 101.062L94.2974 101.656L94.0945 102.657L94.0756 102.761L94.4107 102.344L95.1092 101.724L96.4544 100.729L97.3087 100.093L97.9742 99.6765L98.5405 99.5306L98.8379 99.5202L98.9464 99.5306L98.9606 99.5254L99.0644 99.4212L99.3429 99.244L99.7913 99.0721L100.192 98.9106C101.061 98.9522 101.396 99.1033 101.368 100.197L101.25 100.505L101.028 101.047L100.811 101.979L100.787 102.636L100.858 102.568L101.169 102.344L101.462 102.052L101.807 101.719L102.534 100.885C103.487 99.6817 104.761 97.8997 106.38 98.5823C107.301 99.343 107.305 99.2649 107.824 100.463L107.787 101.021L108.037 100.755L108.641 100.343L109.259 99.9839L109.774 99.6921L110.047 99.5566L110.345 99.4785L110.722 99.442L110.982 99.4785C111.6 99.8692 111.893 100.067 111.78 100.901L111.242 101.135L110.906 101.12L110.685 101.219L110.364 101.448C109.377 102.177 108.603 102.725 107.669 103.574L107.187 104.027C107.032 104.824 106.687 105.658 106.437 106.434L105.998 107.633L105.332 109.342C104.37 111.66 103.416 114.047 102.331 116.287L101.448 117.918L100.669 119.246L99.6261 120.721C98.8757 121.601 98.5358 122.159 97.5919 122.805C96.3411 123.347 95.2603 123.264 94.3446 122.612C93.0939 120.575 94.1133 118.262 94.9629 116.308C96.0532 114.119 96.9547 112.421 98.3565 110.467C99.5931 108.894 100.674 107.539 102.024 106.08L102.949 105.048L104.2 103.85L104.969 103.131L105.309 102.693L105.502 102.459L105.549 102.203L105.62 101.667L105.729 101.12L105.724 100.651V100.578L105.554 100.698L105.247 101.005L104.473 101.844L103.737 102.714L102.694 103.845L101.962 104.454C100.584 104.762 100.183 104.944 99.1919 103.751C98.9229 103.058 98.8757 102.964 98.9464 102.214L98.9417 101.854L99.0456 101.505L99.022 101.339L98.6255 101.641L97.7665 102.344L96.1004 103.673L94.7033 105.585C94.085 106.606 93.8302 107.273 92.9476 107.971L92.7871 107.893C92.0791 107.549 91.7157 107.179 91.659 106.294L91.6543 106.236L91.7393 105.877L91.8384 105.668L92.0933 104.272L92.2396 103.579L92.0697 103.767L91.4372 104.334L90.2006 105.382L86.9109 108.57L86.3304 109.092L85.7309 109.446C84.5935 109.748 84.1309 109.399 83.4513 108.435L83.2625 108.023L83.22 107.549L83.2294 107.065L83.2955 106.648L83.1067 106.856L82.4884 107.482L81.3273 108.826C81.0677 109.175 80.5627 109.727 80.1615 109.852L80.1332 109.863H80.1002C79.9916 109.873 79.8831 109.878 79.7745 109.889H79.7556L79.496 109.873L79.0099 109.592L78.6134 109.175L78.3916 108.748L78.3633 108.247C78.3963 107.226 78.4246 106.439 78.6276 105.434L78.7881 104.585L78.6748 104.736L77.5468 106.241L75.8476 108.326L74.8092 109.691C74.493 110.097 74.1579 110.347 73.634 110.248L73.1715 110.139L72.7467 109.837L72.4021 109.534L72.3785 109.42C72.2322 108.742 72.1425 108.138 72.1897 107.445C72.2039 107.2 72.2322 106.955 72.2511 106.71V106.7L72.3597 105.845L72.4446 105.465L71.2883 107.002L70.4481 108.294C70.1555 108.826 69.0888 110.368 68.48 110.342H68.4611C67.7437 110.264 67.3236 110.045 67.1112 109.237L67.0971 109.175L67.149 108.55L67.2764 107.971L67.3189 107.789L67.2103 107.924L66.5968 108.643L66.5684 108.664C66.0021 109.081 65.7189 109.331 65.0581 109.602L65.0062 109.623L64.5247 109.628L64.4964 109.623C63.7271 109.461 63.2551 109.06 62.8681 108.315L62.8445 108.273L62.7312 107.716L62.7076 107.07L62.7595 106.346L62.8303 105.825L62.8917 105.507L62.8964 105.496C63.038 104.928 63.2221 104.371 63.4911 103.86L63.156 104.366L62.5141 105.413L61.9052 106.481L61.1973 107.596L60.8008 108.518L60.3666 109.42C59.8427 110.285 59.3518 111.551 58.9034 112.525L58.691 112.947L58.5542 113.369L58.3701 113.718L57.917 113.885L57.3412 113.614L57.3176 113.109L57.5441 112.035L57.8556 111.035L58.3229 109.758L59.1394 107.935L58.6486 108.404L57.9878 108.951L57.6055 109.185L57.176 109.498C55.5099 110.332 54.1553 110.42 52.4137 110.285L51.5027 110.076C49.7187 109.086 49.0909 108.477 48.331 106.45L48.1705 105.7C47.6986 103.089 48.3074 100.442 48.8266 97.8893L49.6479 95.0758L51.1346 91.5119L52.0502 89.8394C53.2538 87.5364 54.2874 85.8222 55.6987 83.6704C57.5394 81.1694 59.5501 78.8144 61.9288 76.7771C63.1607 75.8341 64.5956 74.8858 66.5448 73.9427L67.0829 73.7395L67.4699 73.703H67.9041L68.3478 73.8281C69.2163 74.2032 69.3484 74.3648 70.0281 75.0473L70.2829 75.7142C70.4859 76.8084 70.316 77.5014 70.1319 78.5851C69.8157 79.7939 69.5372 80.737 69.1077 81.9197L68.2204 84.0716L67.0451 86.7236L66.3702 88.3336L66.1295 88.7921L65.8227 88.9693L65.4687 88.9641L65.2327 88.8599L65.0203 88.6098L65.0817 87.9428L65.615 86.6194L66.3655 84.7489L67.0971 82.6648L67.8381 80.6119L68.3809 78.6581L68.5413 77.7515L68.6216 77.0897L68.6404 75.9226L68.5508 75.5162L68.4516 75.386L68.1685 75.2974L67.8947 75.3443L67.0593 75.5788L66.4599 75.8914C65.615 76.3811 64.8646 76.824 64.0716 77.4128L62.8162 78.507L61.674 79.5699C60.1919 81.0756 59.163 82.4512 57.8509 84.0664L56.9777 85.3064C56.1801 86.4579 55.5099 87.6511 54.7406 88.8286L54.1931 89.9175L53.452 91.3973L52.7724 92.8562L52.0078 94.5183L51.5358 95.8104L51.026 97.3996L50.5824 98.8585C50.2945 100.145 50.167 100.849 50.0349 102.214L49.9877 103.412L50.0207 104.746L50.1529 105.804L50.4644 106.783C52.3618 109.618 54.2969 108.982 56.8598 107.393L57.5677 106.69L58.2946 105.668L58.5966 105.048L58.776 104.501L58.8562 103.939L58.8374 103.292L58.6958 102.907L57.9925 102.245L56.9022 101.552L56.3453 101.146L55.8827 100.734L55.6987 100.416L55.642 99.9943L55.8827 99.4212L56.7842 98.9366L57.8226 98.5771C60.1447 97.9727 61.7353 97.7434 64.0905 97.6184L65.0864 97.7382L65.6717 98.0613L66.0115 98.4573L66.12 98.8116L66.2239 99.2753L66.2003 99.7911L66.0587 100.25L65.6953 100.781L65.3413 101.125L65.0723 101.453L64.1566 102.813L64.0103 103.032C64.1896 102.824 64.369 102.631 64.5436 102.407L64.5531 102.391L64.8174 102.12L65.5537 101.557L66.1861 101.385L66.7383 101.281L67.3236 101.307H67.333C67.9042 101.427 68.277 101.755 68.7065 102.141ZM15.4008 97.2172L15.1412 97.2016L14.5512 97.2328L14.1736 97.212L13.6828 97.0661L13.6309 96.4721L13.8244 96.1178L14.1925 95.9407L14.5701 95.8417L15.0515 95.7479L15.9436 95.378L16.156 95.2998L16.5666 94.4193L17.52 92.1215L18.7519 89.2298L21.9236 83.1077L22.7543 81.5446C23.6039 80.0336 24.3968 78.8092 25.3124 77.3815L26.2611 76.1415L27.2098 75.2088C28.4936 74.1094 29.5744 73.8437 30.6128 75.016C30.9762 76.1832 30.9621 76.4749 30.8818 77.6994L30.1691 81.1382L29.1732 85.8743L28.4039 89.235L28.1349 90.7564L27.8234 91.9548L28.1396 91.8818L28.8995 91.7516L29.4092 91.6317L30.4712 91.4442C32.9019 90.9283 35.1533 90.5793 37.5698 90.1676L37.702 90.0478L37.7256 89.8133L37.8908 89.5424L38.3392 88.8286L39.0943 87.4739C40.0289 86.0463 40.8265 84.8479 41.879 83.5089L42.5351 82.7742L42.8324 82.274C43.5782 81.852 44.1729 81.8416 44.1115 82.9097L43.8944 83.3994L43.6206 83.8579L42.7239 85.2804L41.4448 87.4426L40.3828 89.4903L40.1468 89.9697L40.4017 89.954L41.1239 89.8863L42.3038 89.7456C44.2625 89.4382 45.0791 89.5476 46.9198 89.3809L49.1476 89.1047L50.2473 89.0735C50.7617 89.3548 50.6815 89.855 49.931 90.6001C49.2797 90.8554 48.6237 91.0482 47.944 91.1055L46.6083 91.2045L46.1316 91.3035L45.2679 91.3348L44.574 91.4129L43.5357 91.5119L41.8885 91.6995L40.6094 91.8766L39.3162 92.0746L39.0849 92.1007L39.066 92.1163L39.0377 92.1684L38.9858 92.3195L38.7498 92.7467L38.2117 94.0389L36.7863 97.1859L35.6725 100.145L34.2235 105.106L32.9633 109.748L32.3733 112.608L31.9155 112.671L31.4152 112.405L31.2783 111.905L31.2547 111.374L31.3255 110.702L31.3444 110.003L31.4199 109.305L31.84 107.237L32.1751 105.679L32.7367 103.678L33.8884 99.7755L35.1957 96.2741L36.0548 93.7367L36.4701 92.6061L35.8896 92.7728L34.0252 93.0802L33.0246 93.2417L32.0051 93.3564L30.8157 93.7263L29.7349 93.9034L28.9467 94.1119L27.3939 94.3619L27.29 94.3984L27.0163 95.5238L26.1762 99.2909L25.3077 103.991L24.831 107.174L23.821 113.588L23.5047 115.86L23.4339 117.824L23.1319 118.486L22.5089 118.501L21.5649 118.574L21.4422 117.928L21.4846 116.626L21.6357 115.109L22.0699 112.035L22.7779 107.096L23.0564 105.08C23.2357 103.652 23.4198 102.24 23.6463 100.818L23.9531 99.1815L24.3024 97.311L24.6375 95.5499L24.713 95.1643L24.005 95.378L23.3537 95.5291L22.3814 95.826C20.9985 96.1908 19.7053 96.5451 18.2988 96.7952L18.1619 96.8837L17.6852 96.9671L17.435 97.4413L17.2793 97.6861L17.1283 98.3322L15.8822 101.292L15.0185 103.6C14.6126 104.981 14.1359 106.247 13.6497 107.596L13.3335 108.456L13.0928 109.534L12.8426 111.056L12.3895 111.405L11.8043 111.217L11.5494 110.795L11.573 110.003L11.7382 108.826L11.9506 107.763C12.635 104.741 13.6309 101.828 14.7778 98.9835L15.3489 97.3214L15.4008 97.2172ZM28.9892 76.923L29.0033 76.6781L28.8429 76.8032L28.4842 77.2565L28.1726 77.5587L28.0263 77.6108L27.7809 77.8817L27.3514 78.3923L26.5915 79.4396L25.893 80.5181L24.8452 82.076L24.5006 82.6961L24.0098 83.6756C22.9525 85.6399 21.9094 87.427 20.9702 89.4851L20.2953 91.0742L19.946 91.6943L19.5542 92.653L19.1955 93.3772L18.7755 94.4036L18.6669 94.6746L19.8374 94.2734C21.5177 93.7055 23.264 93.1896 24.916 92.5644L25.3266 92.4393L25.5437 92.257L25.7042 92.0903L25.8599 91.4702L26.0818 90.3292L27.0588 86.4162L27.6629 83.6912L28.267 81.232L28.7862 78.8404L28.9892 76.923ZM60.7394 104.725L60.8763 104.475L61.7117 102.964L62.8728 101.161L63.5666 100.114L63.9772 99.4941L64.0386 99.4055L62.8351 99.5097L61.438 99.765L59.7813 100.109L58.2521 100.453L58.0491 100.51L58.4409 100.776L59.2999 101.333L59.8804 101.886L60.4043 102.599L60.7206 103.386L60.7866 104.105L60.7394 104.725ZM67.3566 103.027L67.215 102.975L66.9743 102.917L66.795 102.928C66.4032 102.98 66.2758 103.011 66.0115 103.339C65.2563 104.418 64.8504 105.137 64.487 106.445L64.4068 106.851C64.369 107.513 64.3879 107.825 65.0392 107.7L65.4026 107.482L65.9265 107.086L66.441 106.512C66.9366 105.934 67.4133 105.371 67.6068 104.59C67.739 103.954 67.7909 103.496 67.3566 103.027ZM104.228 106.736L101.056 110.264L99.8102 111.889L98.432 114.031C97.9128 114.88 97.4314 115.776 97.0019 116.719L95.9399 119.163C95.7983 119.929 95.6756 120.257 95.7559 121.039L95.8266 121.482L95.8597 121.555L95.9022 121.565L96.2986 121.383L96.9594 120.731C98.1299 119.413 99.1966 117.876 100.098 115.969L100.962 114.338L101.802 112.41L102.557 110.613L103.544 108.409L104.077 107.023L104.228 106.736ZM108.353 53.6329L108.731 53.4036L108.858 53.1744L108.726 52.7211L108.485 52.4606L108.23 52.3407L107.928 52.3616L107.135 52.9295L105.823 54.1956L105.233 54.9667L105.087 55.3731L105.233 55.7639L105.606 56.1286L105.894 56.2224L106.182 56.1391L106.663 55.5711L107.107 55.0553L107.4 54.6645L107.801 54.0966L108.353 53.6329Z" fill="#C5A477"/>
</svg>
